<svg version="1" xmlns="http://www.w3.org/2000/svg" width="933.333" height="933.333" viewBox="0 0 700.000000 700.000000"><path d="M638.7 117.7c-.1.1-9.6.4-21.2.8-11.5.4-25 .8-30 1-4.9.2-17.3.7-27.5 1-10.2.3-23.2.8-29 1-5.8.2-18.6.7-28.5 1-9.9.3-23.4.8-30 1-6.6.3-19 .7-27.5 1-22.1.8-40.3 1.4-57 2-24.4.9-41.8 1.5-56.5 2-7.7.3-20.7.7-29 1-8.2.3-21.1.7-28.5 1-30.8 1-45.1 1.5-56.5 2-6.6.3-19.9.7-29.5 1-9.6.3-22.4.8-28.5 1-6 .2-19.8.7-30.5 1.1-10.7.3-22.4.8-26 .9-3.6.2-11.4.4-17.3.5l-10.8.2.5 17.7c.3 9.7.8 23.7 1.1 31.1 1.2 30.6 2.7 76.8 2.9 84.9l.1 5.4-5.5.2c-8.6.4-34.2 1.7-37.5 2-1.6.2-4.1.3-5.3.4l-2.4.1.7 15.2c.4 8.4.8 17.5 1 20.3.2 2.7.6 10.8 1 18 .9 19.9 1.9 39.6 3 59 .3 4.4.7 12.9 1 19 .3 6 .7 14.4 1 18.5.2 4.1.7 12.9 1 19.5.3 6.6.8 14.5 1 17.5.2 3 .6 11.6 1 19 .3 7.4.7 16.4 1 20 .2 3.6.7 12.8 1 20.5.3 7.7.8 15.6 1 17.5.2 1.9.6 9.8 1 17.5 1.2 27.2 1.6 31.9 2.7 32.6.7.4 1.5.6 1.8.4.3-.1 6.6-.6 14-.9 7.4-.4 16.7-.9 20.5-1.1 3.9-.2 12.2-.6 18.5-1 6.3-.3 15.3-.8 20-1 8.8-.6 16.7-1 37.5-2 6.6-.3 15.6-.7 20-1 4.4-.3 13.2-.7 19.5-1 6.3-.3 14.4-.8 18-1 6.9-.4 24.3-1.3 38.2-2 4.6-.2 12.4-.6 17.3-.9 5-.3 14.6-.8 21.5-1.1 6.9-.3 15-.8 18-1 3-.2 11.1-.6 18-.9 6.9-.4 16.1-.8 20.5-1.1 4.4-.3 13-.7 19-1 27.6-1.4 45-2.3 56.5-3 4.1-.3 13.4-.7 20.5-1a876 876 0 0 0 18.5-1c3-.2 11.6-.7 19-1 7.4-.4 16.2-.8 19.5-1 3.3-.2 12.1-.6 19.5-1 7.4-.3 15.5-.8 18-1 2.5-.2 10.8-.7 18.5-1 7.7-.4 16.5-.8 19.6-1 3-.2 12-.6 20-1 7.9-.4 15.8-.9 17.4-1 1.7-.2 6.1-.3 9.9-.4l6.8-.1-.7-15.2c-.3-8.4-.8-17.6-1-20.3-.3-5.1-1.5-26.3-2-37-1-23.1-1.7-35.6-2-39.3-.4-4.4-.4-4.4 4.7-4.4 1.5-.1 2.5-.5 2.2-.9-.3-.5 0-.9.5-.9.6 0 1.1-.5 1.1-1.1 0-.8-.6-.7-1.6.2-1.7 1.4-6.3 2.1-6.5 1 0-.3-.2-1.7-.5-3-.3-1.4.3-3.2 1.3-4.4 1.6-1.8 1.6-2 .1-1.4-1.7.6-2-1.5-.3-3 .4-.4.5-.2.1.4-.4.7-.2 1.3.3 1.3.6 0 1.1-.3 1.1-.8 0-.4 3.6-.8 8-.8s8 .4 8 .8.5.8 1.1.8c.5 0 .8-.4.5-.8-.2-.4 1.1-.8 2.9-.9 2.7 0 3.3.3 3.2 1.8-.1 1.1-.5 1.9-1 1.9s-.6-.7-.3-1.6c.6-1.5.3-1.4-2.1.1-2.7 1.8-2.8 1.8-1.3-.1 1.4-1.9 1.4-1.9-.8 0-1.3 1.2-2.2 1.4-2.2.7s-.5-.9-1.1-.5c-.8.4-.7.9.2 1.5.8.5.9.9.4.9-.6 0-1.7-.6-2.5-1.2-1.1-1-1.1-.9 0 .7 1.4 1.8 1.4 1.9-.2.6-1-.7-1.5-1.7-1.2-2.2.3-.5 0-.9-.5-.9-1.4 0-1.4 1 .2 3 .6.9 0 .3-1.5-1.4-2.7-2.9-2.8-2.9-4.7-1.2-1.1 1-2.6 1.5-3.3 1.1-.7-.4 0 .4 1.6 1.8 1.9 1.5 4 2.3 5.8 2.2 1.8-.2 2.5.1 2.1.9-.4.6.2.4 1.3-.4 1.8-1.4 1.8-1.4.4.5s-1.4 1.9.4.5c1.9-1.5 1.9-1.4.2 1.2-2 3-2.9 3.6-2 1.5.3-.8-.2-1.4-1.1-1.4-.9 0-1.4.6-1.1 1.2.2.6-.2 1.2-.9 1.2s-1.1-.7-.8-1.6c.4-1.4.4-1.4-.6-.1-.6.8-1.1 1.8-1.1 2.1 0 .8 10.8.4 11.6-.4.4-.3 1.5-.2 2.5.4 1.1.5 1.9.6 1.9.2 0-.4 6.5-.8 14.4-.8 12 0 14.3-.2 13.8-1.4-.4-1-.1-1.2.9-.5 2.1 1.3 7.6 1.3 7.6 0 0-.6-.8-1.2-1.8-1.2s-1.6.3-1.4.6c.2.3-.6.7-1.8.7-2.2.2-2.2.2-.2-1 1.1-.6 2.2-1.2 2.5-1.2 1.9-.1 2.8-1.8 2.2-3.8-.4-1.2-.7-8.2-.7-15.4 0-7.3-.3-13.3-.7-13.3-.5 0-.8-.5-.8-1.1 0-.5.5-.7 1.2-.3.7.5.8.3.3-.6-.5-.8-.9-7.6-1-15.3-.1-7.6-.5-14.1-1.1-14.5-1.3-1-1.6-3.2-.4-3.2.5 0 1-.7 1-1.5s-.5-1.5-1.1-1.5c-.5 0-.8.4-.4.9.3.5 0 1.3-.6 1.7-.8.4-.9.3-.5-.5.4-.7.2-1-.5-.9-2 .5-1.7-5.8.3-8.4 1.2-1.5 1.6-1.7 1.2-.6-.3 1-.2 1.8.3 1.8.4 0 .9-1.4.9-3 .2-2.7 0-2.9-1.1-1.4-.7 1-2.3 1.8-3.5 1.9-2.2.2-2.2.1-.4-1.3 1.7-1.3 1.7-1.4.1-.8-1.2.4-1.6.2-1.1-.6.5-.7.2-.8-.7-.3-1.1.6-1.2.5-.2-.5 1-1.1.9-1.8-.5-3.4-1.6-2-1.6-2 .3-.6l2 1.5-2-2.5-2-2.5 2.2 1.9c1.3 1 2 2.3 1.6 2.9-.4.6 0 .8 1 .4 1.7-.6 3.1.5 2 1.7-1.1 1-1.2 3.7-.2 3 .5-.3.9-1.2.9-2s.6-1.4 1.3-1.4c.8 0 .7-.4-.3-1-1.3-.9-1.3-1 0-1s1.3-.1 0-1-1.3-1 0-1 1.3-.1 0-1-1.3-1.1 0-2c.8-.5 1-1 .4-1-1.3 0-1.3-4.2.1-5.2.6-.5.6-.8-.1-.8-1.2 0-1.3-4.4-.1-5.6.3-.4.3-1.4-.2-2.3-.4-.9-.7-4.2-.6-7.3 0-3.1-.2-5.5-.6-5.2-.4.2-1 0-1.4-.6-.3-.5-.2-1 .4-1 .5 0 .9-3.2.8-7.5 0-4.1-.5-7.5-1-7.5s-.4-.7.3-1.5c1.5-1.8.3-4-1.4-2.6-.7.6-1.6.8-1.9.4-.4-.3-.7 0-.7.8 0 1.2-.2 1.1-1.1-.1-.9-1.3-1-1.2-.5.3.4 1.2.2 1.6-.6 1.1-.7-.5-.8-.3-.3.7.7 1.1.5 1.1-1-.1-1.5-1.2-1.7-1.2-1-.1.6 1 .4 1.2-.6.6-1.1-.7-1.1-.5.1 1 1.2 1.5 1.2 1.7.1 1-1-.5-1.2-.4-.7.4.4.6 1.3.8 1.9.4.7-.4.5.2-.3 1.3-1.4 1.8-1.4 1.8.3.5 2.5-2 4.6.1 2.6 2.5-1.2 1.6-1.2 1.7.1.9 3.3-2 4.6-1.3 4.5 2.7 0 2.3-.6 4.3-1.5 4.8-1.2.8-1.2 1-.1 1 .8 0 1.1.3.8.6-.4.4-1.4.1-2.4-.7-1.5-1.2-1.6-1.2-.8.1.7 1.2.6 1.3-.7.3-.8-.7-1.9-.9-2.4-.5-.4.4-.2-.2.6-1.2 1.3-1.8 1.3-1.9 0-1.1-1.3.8-1.3.7 0-1s1.3-1.8 0-1.1c-.8.4-.7.1.3-.7 1.2-1 1.4-1.7.8-2.2-.6-.3-1.1-.1-1.1.6s-.3.9-.7.6c-.3-.4.2-1.6 1.2-2.7s1.5-2.3 1.1-2.7c-.3-.4-1.4.2-2.4 1.2-1.6 1.8-1.6 1.8.3.4 1.8-1.3 1.9-1.3.7.3-.8.9-2.1 1.4-3 1.1-1.3-.4-1.4-.3-.3.5.8.6 1 1.5.6 2.2-.5.8-.4 1.1.1.7.6-.3 1 .5 1 1.8s-.4 2.1-1 1.8c-.5-.4-.6-.1-.1.7.6.9.4 1.1-.6.5-1.2-.7-1.2-.6-.1.7 1 1.3 1 1.7 0 2.1-.7.3-.3.4.9.4 1.2-.1 2-.4 1.8-.7-.2-.4.2-.7 1-.7s1.1.5.8 1.1c-.4.6 0 .5.9-.2 1.4-1.1 1.6-1.1 1.4.1-.1.8-.8 2.3-1.6 3.3-1.4 1.8-1.4 1.8.5.4s1.9-1.4.5.4c-1.1 1.4-1.1 1.8-.2 1.2 1.1-.7 1.2-.4.3 1.1-.7 1.4-.7 2.3.2 3.3.9 1 .9 1.4-.1 1.7-.6.3-1 .9-.7 1.3.3.5 1.2.7 2.1.3 1.3-.5 1.3-.9-.2-3.2-1.4-2-1.4-2.3-.2-1.4.8.7 1.7 1.1 1.9.8.3-.2.4.9.4 2.5-.1 3.6-.7 4.3-4.2 4.5-1.8.1-2.7.7-2.5 1.5.3 1.1 0 1.1-1.5-.1-1.7-1.3-1.7-1.3 0 .7.9 1.1 1.7 2.5 1.7 3s-.7.1-1.4-.9c-.8-1-1.8-1.7-2.2-1.5-.4.2-.8-.7-.9-1.9-.1-1.5.3-1.9 1.4-1.5 1.5.5 1.5.4 0-1.4-1.2-1.4-1.5-4.2-1.5-11.2.1-5.5-.3-9.2-.9-9.2-.7 0-.7-.3 0-.8 1.1-.8 1.6-5.2.6-5.2-.4 0-.7-.9-.8-2-.1-1.1.2-2 .5-2 .4 0 .8-.9.9-2 .1-1.3-.2-1.8-1-1.3-.7.4-.6 0 .2-1 .9-1.1.9-1.7.2-1.7-1.2 0-1-2.7.2-4.8.5-.6.4-1.2-.2-1.2-.6 0-.9-1.7-.8-3.8.2-2-.1-4.5-.6-5.6-.6-1.2-.6-1.6.1-1.2.6.3 1.3.2 1.7-.4.3-.5.2-1-.3-1s-1.2-.9-1.5-1.9c-.4-1.5-.1-1.8 1.2-1.4 1.5.6 1.5.5 0-1.3-1.2-1.4-1.5-3.9-1.4-9.9.1-4.4-.1-8.5-.5-9-.8-1.3-.7-2.7.3-4.3.5-.6.5-1.8.1-2.4-.5-.7-.9-5-.9-9.6-.1-7.1.1-8.2 1.4-7.7 1.1.3.9 0-.3-1-1.4-1.1-1.6-1.5-.5-1.5 1.2-.1 1.2-.2-.1-1.3-2.2-1.8-2.3-3.8-.2-3 1.4.6 1.5.4.5-.8-1-1.2-1-1.8 0-2.9 1-1 .9-1.2-.3-.8-1.3.5-1.5-1-1.5-9.6 0-5.5-.4-10.7-1-11.5-.7-1.1-.7-1.3.3-.7 1.3.8 1.7-.6.5-1.8-1-1-1.1-6.6-.1-7.2.5-.3.3-1.3-.4-2.2-1-1.2-1-1.6 0-1.9.6-.3.9-1 .5-1.6-1.2-1.9-1.4-4.7-.3-4.7.6 0 1-.5 1-1.1 0-.5-.4-.8-.9-.5-1.5 1-.7-11.9.8-13.8.8-.9 1.1-1.9.8-2.3-.4-.3-.2-1.2.4-1.9.5-.7.6-1.5.1-1.7-.4-.3-1.3.3-2 1.4-.7 1.1-.8 1.9-.2 1.9 1.4 0 1.2 1.7-.3 2.3-.9.3-1.2-1.8-1.2-9.2.1-5.3-.3-10.1-.7-10.8-.5-.6-.4-1.4.2-1.8.8-.5.8-1.1-.1-2.1-.9-1.1-.9-1.7 0-2.8.9-1.1.9-1.5-.1-1.9-1.1-.4-1-.6 0-.6.8-.1 1-.6.6-1.3-.5-.7-.9-2.8-1-4.8-.1-1.9-.3-6.6-.5-10.3l-.4-6.8-11.8.3c-6.5.2-11.9.4-12 .5zm42 187.8c-1.4 1-1.5 1.4-.4 1.8 1.3.5 1.7 4.1.5 5.2-.3.3-2-.9-3.9-2.7-1.9-1.7-2.9-2.9-2.3-2.5.7.4 1.7 0 2.4-.8s1.9-1.5 2.6-1.5c.8 0 1.4-.5 1.4-1.2 0-.6.3-.8.7-.4.5.4 0 1.3-1 2.1zm1.8 23.9c.1 3.3-.3 4.3-1.4 4.1-.8-.1-1.7-.8-1.9-1.5-.3-.9.1-1.1 1.4-.7 1.8.7 1.8.6 0-.8-1.4-1.1-1.6-1.5-.5-1.5 1.2 0 1.2-.2-.1-1-1.3-.9-1.3-1 0-1.1 1.2 0 1.2-.2.1-.6-1.1-.4-1.1-.7 0-1.4 1.9-1.1 2.3-.3 2.4 4.5zm.8 7.1c.4.8.3 1.6-.1 1.9-.4.3-.9-.4-.9-1.5-.2-2.3.3-2.5 1-.4zm-.8 8.7c0 2.9-.4 5.9-.8 6.5-.5.7-.4 1.3.1 1.3s.9.7.9 1.5c0 1.6-1.2 1.1-4.4-1.8-1.3-1.1-2.3-1.9-2.4-1.6 0 .2-.2 1.2-.4 2.1-.2.9.3 2.2 1.1 2.9 1 .8 1.1 1.5.4 2.4-.7.8-.7 1.5-.1 1.9.5.3.7 1.6.3 2.9-.5 2-.4 2.1 1.2.8 1.9-1.6 3.2-.9 2 1.1-1.5 2.4-1.1 6.3 1 8.5 1.1 1.3 1.5 2.3 1 2.3s0 .7 1 1.5c1.1.8 1.4 1.5.8 1.5-1.4 0-1.2 2.1.3 3.2.6.5.5.8-.3.8s-1 .5-.5 1.2c1.1 1.8 1.1 20.8 0 20.8-.5 0-.6-.8-.2-1.8.5-1.4.4-1.5-.7-.4s-1 1.5.2 2.5c.8.7 1.6 2.1 1.8 3.2.1 1.1.4 2.7.6 3.5.2.8-.4 2.4-1.3 3.4-1.3 1.6-1.4 1.9-.1 1.4 2.2-.8 2.2 14.8 0 16.2-1.3.9-.8 1.4 1.2 1.1.3 0 .5.7.3 1.7-.1.9.2 2.2.7 2.9.5.7.5 1.4-.1 1.7-.5.4-1.3.2-1.6-.4-.4-.6-1.4-.1-2.5 1.2s-1.9 1.9-2 1.4c0-.5-.7-.2-1.6.5-1.5 1.3-11.4 2.2-11.4 1.1 0-.3.6-1.3 1.3-2.2.6-.9.2-.5-1 .8-1.3 1.3-2.3 1.8-2.3 1.3 0-.6-.5-1.1-1.1-1.1-.5 0-.8.4-.5.8.3.5-.1.9-.9.9s-1.5-.4-1.5-.9-.6-.6-1.2-.1c-.7.4-3.9.8-7 .9-3.2.1-5.9.2-6 .4-.2.1-1.3.3-2.6.4-2.1.3-2.1.1-.7-2 1-1.5 1.1-2.5.4-2.9-.6-.4-.3-1.2.8-2 1-.7 2.1-1.1 2.5-.9.4.2 1 0 1.3-.6.5-.8 1.1-.7 2.1.1 1.4 1.2 2.8.6 3-1.2.1-.5.2-1.4.3-1.9.1-1.3 3.1-1.3 3.1.1 0 .5.5.7 1 .4.6-.4.7-1.2.3-1.8-.4-.7 0-.6 1 .2.9.7 1.7.9 1.7.4s2-.9 4.4-.9c3 0 4.2.4 3.9 1.2-.3.8.3 1.1 1.4.9 1-.2 2-.4 2.3-.4.3-.1-.2-.6-1-1.2-1.2-.8-1-.9.9-.4 1.6.5 2.1.4 1.7-.4-.4-.6-.2-1.1.4-1.1.6 0 .8-.5.5-1-.4-.6-1.2-.7-1.8-.3-.7.4-.6 0 .2-1 .7-.9.9-1.7.5-1.7-.5 0-.9-4.8-.9-10.8 0-5.9-.3-11.3-.8-12-.6-.7-.5-1.2.1-1.2s.8-1 .5-2.3c-.3-1.2-.6-6.6-.7-11.9-.1-5.3-.5-10-.9-10.4-.4-.4-.2-1.3.4-2 .7-.8.7-1.4-.1-1.9-.7-.4-.7-1.2 0-2.6.8-1.4.7-1.9-.2-2-1 0-1-.2.1-.6 1.1-.5 1.1-.7 0-1.4s-1.1-.9-.1-.9c.8 0 1-.5.5-1.3-1-1.7-1.2-5.7-.1-5.1.4.3.8 0 .8-.5 0-.6-.5-1.1-1.2-1.1-.6 0-.3-.7.8-1.5 1.6-1.3 1.6-1.4.1-.9-1.3.5-1.6.2-1.4-1.2.1-1.1.6-2.5 1-3.2.5-.7.3-1.2-.4-1.2s-.4-.7.7-1.5c1.6-1.3 1.6-1.4.2-.9-1.2.4-1.8.1-1.8-1 0-1.8 1.5-2.2 2.5-.6.3.5 1.2.7 2 .4.8-.4 1.2-1.1.8-1.8-1.4-2.1-1.1-3.4.7-3.1 1 .2 2.6-.3 3.7-1 1-.8 1.8-1.5 1.8-1.5.1 0 .1 2.4 0 5.2zm-44.3 92.2c1.6 2.2 1.6 2.3-.5 2.2-3.5-.2-5-1.5-3.6-3.2 1.5-1.9 2.1-1.7 4.1 1z"/><path d="M677 307.8c0 .5 1 1.7 2.2 2.8 1.9 1.5 2 1.6.9.1-1.1-1.4-1.1-1.7 0-1.7s1.1-.2-.1-1c-1.9-1.2-3-1.3-3-.2zM680 342.9c-.8.6-1.7.8-2.1.5-.4-.2-1 0-1.3.5-.4.5-.2 1.2.3 1.6.6.3.8 1.2.5 2-.4.8-1 1.3-1.4 1-.8-.5-2.8 1.4-2.9 2.7-.1.5-.1.9-.2 1-.6 2.1-.5 3.7.1 3.3.5-.3 1.1-.1 1.4.4.4.5.2 1.2-.4 1.6-.6.4-.8 1.1-.4 1.6.3.5.2 1.5-.3 2.2-.8 1.1-1 2.9-.3 4.2.7 1.3.5 5.2-.2 6.7-.5 1-.4 1.9.2 2.3.8.5.8 1.1 0 2-.6.7-.7 1.6-.2 1.8.4.3.8 3.8.7 7.6-.1 3.9.3 7.1.8 7.1s.4.6-.2 1.4c-.8 1-.9 2.1-.3 3.3.5 1 .8 7.6.7 14.7-.1 9.3.3 13.2 1.2 14.2 1.7 1.6 1.7 2.7.1 1.8-1-.6-1-.5-.1.7.9 1.1.8 2-.2 3.9-.8 1.4-1.4 2.1-1.5 1.6 0-.5-.6-.4-1.2.1-.7.5-1.9.8-2.5.7-.7-.1-1.8-.2-2.4-.3-.5 0-.8-.5-.5-.9.2-.4-.6-.8-2-.8-1.3 0-2.4.3-2.4.7 0 .4-.8.6-1.7.4-1-.1-2.3.2-3 .7-.7.5-1.4.5-1.8-.2-.3-.6-1.1-.8-1.6-.4-.5.3-.7.9-.4 1.4.9 1.5-2.4 3.4-3.8 2.1-.8-.6-1.7-.7-2.1-.3-.4.4-1.3.7-1.9.7-.7 0-1.2.7-1.2 1.5s-.4 2-.8 2.7c-.4.6-.3 1.4.2 1.7.5.4 1.2.3 1.5-.2.2-.4 3.1-.7 6.3-.7 3.2.1 6.3-.1 6.8-.4.6-.3 2.2-.6 3.7-.6 1.4 0 3.5-.8 4.6-1.8 2.3-2.1 3.8-1 1.7 1.3-1.3 1.5-1.1 1.6 2.9 1.5 2.4 0 5-.6 5.8-1.3.8-.6 1.7-.9 2.1-.6.3.3 1.1-.4 1.7-1.6 1-1.8 1.4-1.9 2.8-.8 1.5 1.1 1.5 1.1.5-.3-.7-.9-1.1-1.8-.8-2.1.3-.3-.1-1.1-.9-1.7-1.4-1.2-1.1-4.5.3-3.7.9.6.7-9.6-.2-11.2-.5-.7-.3-1.2.5-1.2s.6-.5-.5-1.1c-1.5-.9-1.6-1.3-.5-2.6 1.5-1.9 1.9-4.3.7-4.3-.6 0-.8-.4-.5-.8.3-.5-.2-2.1-1-3.7-1.1-2.2-1.2-3.1-.2-4.3 1.3-1.6 1.9-17 .7-17.8-.4-.2-.5-1.8-.4-3.5.2-1.9-.3-3.3-1.1-3.6-.8-.3-1.4-.9-1.4-1.5 0-.5.6-.6 1.3-.2.6.4.3-.4-.9-1.7-2.1-2.5-2.5-6.3-.9-8.9.7-1.2.6-1.3-.6-.3-.8.6-1.9.9-2.4.5-1.5-1.1-1.7-3.2-.2-3.2.8 0 .8-.3-.2-.9-1.2-.8-1.2-1.3-.3-2.4 1-1.1.9-1.7-.2-2.6-1.5-1.3-1.6-2.8-.2-4.9.6-1.1 1.4-.8 3.3 1 1.4 1.3 2.4 1.8 2.3 1.3-.1-.6-.1-1.2 0-1.5.2-.4.7-10 .6-10-.1 0-.8.4-1.6.9zm.1 1.8c-1.1.5-1.1.7 0 1.4 1 .6 1.1.9.2.9-.7 0-1.3.5-1.3 1.1 0 .5.4.8.9.5.8-.5.8.2.2 3.3-.1.2-.8-.2-1.6-.9-1-.8-1.2-1.7-.5-3 .6-1 .5-2.1 0-2.6-.6-.6-.1-1 1.3-1.1 1.2 0 1.6.1.8.4zm-5.6 18.3c-.2 1.2.4 2.4 1.6 3 1.3.8 1.8 1.8 1.5 3.5-.3 1.3.1 2.9.8 3.4.7.6 1.2 2.3 1 3.7-.1 1.7.2 2.4 1 2.1.9-.4 1.2.4 1.1 2.1-.1 1.5.1 3.1.4 3.7.3.5.6 4.5.6 8.9.1 6.4-.2 8-1.7 8.9-1.6 1-1.6 1.3-.1 2.9.9 1 1.3 1.8.8 1.8-.4 0-.2.7.5 1.5s.9 1.5.6 1.5c-.4 0-.2.9.3 1.9.8 1.4.7 2.2-.4 3.1-1.2 1-1.3 1.6-.4 2.6.6.8.8 1.4.5 1.4-.4 0-.4.6.1 1.2 1.2 2 1 9.1-.4 11.2-1 1.6-1 2.3.1 3.5 1.2 1.4 1.2 1.9-.5 4-1 1.3-1.9 2-1.9 1.6 0-.4-.7-.1-1.6.6-1.9 1.6-9 2.1-7.4.5.6-.6.6-1.4-.2-2.3-.9-1.1-1.5-1-3.3.7-2.1 2-2.4 2-3.9.5s-2.1-1.2-1.7.8c.1.5-.3.6-.8.3-.5-.4-1.2-.3-1.5.2-.2.4-3.1.7-6.3.7-3.2-.1-6.5.3-7.3.9-1.2.8-1.3.7-.3-.3.6-.7 1-1.9.9-2.5-.2-.6-.1-.7.2-.3.2.4 1 0 1.7-1 1.3-1.7 1.4-1.7 2.1 0 .6 1.7.8 1.7 3-.4 1.3-1.2 2-2.7 1.7-3.3-.4-.6 0-.5.9.2 1 .8 1.9.9 2.2.3.3-.5 1.4-.8 2.4-.6.9.1 2.5-.2 3.5-.7 1.2-.6 1.9-.5 2.3.5.4 1.1 5.1 1.6 6.2.7.2-.3 1.7-.7 3-.9.5 0 .9-.7 1-1.4 0-.6.3-2.3.6-3.6.3-1.4 0-3.2-.8-4-1.4-1.7-1.6-7.7-.3-9.9.5-.7.3-1.2-.4-1.2-.6 0 0-.9 1.4-2 3.1-2.5 4.1-2.5 3.2-.3-.5 1.5-.4 1.6.6.5 1-.9 1-1.5.1-2.4-.9-.9-1.6-.8-3 .5-1 .9-2.1 1.7-2.3 1.7-.8 0-.4-14.4.4-15.7.4-.6.3-1.4-.2-1.7-.5-.4-1.2 0-1.4.6-.4.9-.6 1-.6.1-.1-.6.4-1.5.9-1.8.6-.4.7-1.3.2-2.3-.5-.9-.8-4.3-.7-7.5 0-3.2-.3-6.1-.7-6.3-.5-.3-.6-1-.2-1.5.3-.5.9-.7 1.4-.4.4.3 1.1-.2 1.4-1 .4-1.1 0-1.5-1.2-1.3-1.1.2-1.6-.2-1.3-1.2.7-2.9.8-6.5.1-7.5-.5-.9-.6-2.2-.1-4 .4-1.5.9-.2.6 1.5z"/><path d="M675.5 368.7c.1 1-.2 2.6-.7 3.7-.7 1.3-.7 1.6.1 1.2 1.9-1.2 3.2.3 2.1 2.5-.7 1.1-1.6 1.7-2.3 1.2-.9-.5-.9-.3-.1.8.5.8 1 3.4.9 5.9 0 2.9.5 4.9 1.5 5.8 1.3 1 1.2 1.1-.5.6-1.2-.3-1.5-.2-.9.3.6.4 1 1.6.8 2.5-.1 1 .2 2 .7 2.4.5.3.6 1.1.2 1.7-.4.7-.8 4.2-.8 7.9-.1 6.3 0 6.6 1.7 5.2 1-1 2.2-1.3 3-.8 1 .6 1 .4-.1-.9-.7-.9-1-1.7-.6-1.7.5 0 .2-.8-.6-1.8-1.9-2.2-1.8-6.4.1-6.9 1.2-.4 1.3-.3.1.5-.7.5-1 1.5-.7 2.1 1.5 2.4 2.2-.1 2.1-7.9 0-6-.4-8.3-1.5-9-1.3-.9-1.3-1 0-1s1.3-.1 0-1-1.3-1 0-1c1.2-.1 1.2-.2-.2-1-1-.6-1.5-2-1.4-3.5.2-1.4-.3-3-1-3.6-.7-.5-1-2.1-.8-3.5.2-1.3 0-2.4-.5-2.4s-.8.8-.6 1.7zm2 9.2c-.3.5-.1 1.2.4 1.6.5.3.8 1.5.6 2.6-.2 1.2.2 2.2 1.1 2.6 1.3.5 1.3.7.2 1.4-1 .7-1 .9.2.9 1.3 0 1.3.1 0 1-.8.5-1 1-.5 1 .6 0 1.1.9 1.2 2.1.1 1.5-.2 1.9-1.5 1.5-1.3-.5-1.3-.3.2.9 1.4 1.1 1.6 1.5.5 1.5-1 0-1.1.2-.2.8.9.5.6 1.2-1 2.1-2 1.3-2.1 1.3-.9-.2.8-.9.9-1.8.3-2.1-1-.7-.9-2.5.3-4.4.5-.8.2-2-.6-3s-1.3-3.5-1.2-6c.2-5 .2-5.2 1-5.2.3 0 .3.4-.1.9zm1.4 30.2c-1.3 2.5-1.4 2.4-1.4-1-.1-2.3.2-2.8 1.2-1.9.9.7 1 1.5.2 2.9z"/><path d="M677.4 385.4c.1.8.5 1.8.8 2.2.4.3.5-.1.4-1-.1-.8-.5-1.8-.8-2.2-.4-.3-.5.1-.4 1zM678.3 413.2c-.4.7-.8 1.6-.9 2-.1.5-.3.9-.4 1-.9 1.1-.5 8.6.6 9.9 1.2 1.4 1.2 2.6-.1 7.9-.2.8-.4 1.8-.4 2.2-.1.4-1 .5-2.1.3s-2.2.1-2.5.6c-.4.5-1.2.6-1.8.2-.7-.3-.4.3.6 1.4.9 1.1 1.5 2.2 1.2 2.5-1.6 1.6 4.6-.1 7.3-2.1 3-2.1 3.2-2.5 1.8-4-1.3-1.4-1.3-2-.3-3.7 1.1-1.6 1.6-9.2.7-10.9-.1-.3-.3-.9-.4-1.4 0-.5-.4-1.3-.9-1.7-.4-.4.1-1.7 1-2.8 1.7-2 1.7-2 .1-.7-1.6 1.2-2.2.9-1.9-1.2.2-1.1-.7-.8-1.6.5zm1.3 2.9c.1.5.3 1.1.4 1.4.1.3.4.9.5 1.5.1.5.4 1.2.5 1.5.9 1.7.4 9.3-.7 10.9-1 1.7-1 2.3.3 3.7 1.3 1.5 1.2 1.8-1.3 3.5-3.3 2.2-4.3 2.4-6 1.1-1.8-1.3-.7-2.7 1.7-2.2 2.5.5 3-.2 4.4-7.2.1-.7.5-1.6.9-1.9.4-.4-.2-1.3-1.2-2-1.4-1-1.8-2.4-1.6-5.6.2-2.4.4-4.5.5-4.8.1-.3.1-1 0-1.5-.1-.6.2-.6.7-.2.4.5.9 1.3.9 1.8z"/><path d="M678.5 421.2c0 2.8.5 4.3 1.5 4.5 1.3.4 1.3.3 0-.6-.9-.6-1-1.1-.3-1.1.9 0 1.1-2.7.3-3.8-.2-.1-.3-.6-.4-1.1-.4-2.9-1.2-1.4-1.1 2.1zM678.2 437c-.7 1.2-2 1.7-3.2 1.5-1.1-.2-1.8 0-1.5.5.3.4 1.1.7 1.8.6 2-.3 5.9-3.3 5-3.9-.5-.3-1.4.3-2.1 1.3zM665 435.6c0 .7-1.3 1-3 .9-1.7-.1-3.3.1-3.6.6-.3.5-.9.7-1.3.4-.5-.2-1.8.6-3 1.8l-2.1 2.3 3.4-.1c1.9 0 4.3-.8 5.3-1.8 1.7-1.5 2.1-1.5 3.4-.1 1.4 1.3 1.7 1.2 3.5-.7 1-1.3 1.4-1.9.7-1.6-.6.4-1.6 0-2.2-1-.6-1-1.1-1.3-1.1-.7zm-4.4 3.3c-2.1 2-7.1 2.4-5.5.5.6-.8 1.5-1.2 1.9-.9.5.3 1.1.2 1.4-.3.3-.5 1.2-.9 2.1-.9 1.4 0 1.4.2.1 1.6zm5.9-.7c.4.3.2.9-.3 1.2-.5.3-1.5-.1-2.1-.8-1-1.1-.9-1.4.3-1.2.9.1 1.8.5 2.1.8zM648.7 440.3c-.3.8.1 1.4.8 1.4.7 0 1.1-.6.8-1.4-.3-.7-.6-1.3-.8-1.3-.2 0-.5.6-.8 1.3zM634.5 437c-.3.5-.5 1-.3 1.1 3.3.8 3.8.7 2.7-.7-1.4-1.7-1.6-1.7-2.4-.4zM672 131c-1.2.7-1.1 1.2.5 3.2 2 2.2 2 2.2.1.8-1.6-1.2-1.8-1.2-1.1-.1.5 1 .4 1.2-.3.7-1.8-1.1-1.4 0 .5 1.5 1.4 1.2 1.5 1.2.9.1-.7-1.2-.4-1.2 1.4-.2l2.2 1.2-2.1 1.5c-2.1 1.4-2 3.3 0 3.3.6 0 .7-.5.4-1-.3-.6 0-1.3.8-1.6 1-.3 1.4-1.9 1.3-4.9 0-2.4-.3-4.2-.5-3.9-.2.2-.9 0-1.5-.6-.7-.5-1.8-.5-2.6 0zm3.7 4.1c.3 2.1.3 2.1-1.6-.2-1.1-1.3-1.7-2.8-1.4-3.2.8-1.2 2.6.9 3 3.4z"/><path d="M664.8 131.7c-.4.8-.2 6.6.2 7 .7.8.5 3-.3 4-.6.8-.5 1.8.2 2.7.9 1 .9 1.6.1 2.1-.7.4-.7 1.1-.2 1.8.5.7.8 4.4.7 8.4-.1 5.6.1 6.8 1 5.7 1-1.4 1.2-1.4 2.4-.1.8 1.1.9 1.7.1 2.2-.6.3-.8 1.1-.4 1.6.3.6-.1 1.8-.8 2.7-1.6 1.8-1.8 10.7-.4 13 .4.7.3 1.8-.2 2.5-1.3 1.5-1.3 2.9-.1 4.4.7.7.6 1.4-.1 1.8-.8.5-.8 1 0 2 .6.7.7 1.6.2 1.9-.9.6-.9 5.6 0 7.1.4.6.5 2.7.3 4.8-.2 2 0 3.7.6 3.7.5 0 .9.5.9 1.1 0 .5-.4.8-.9.5-1-.7-.9 1.3.2 3.1.4.6.2 1.3-.5 1.5-.7.3-.5.7.6 1.1 1.1.5 1.5.3 1-.5-.5-.7-.2-.8.7-.3.8.5 1.1.5.7 0-.4-.4-.2-1.5.5-2.3.6-.9.7-1.3.2-1-.6.4-1.1-.2-1.2-1.2-.2-2.6 1.4-3.5 3.5-1.8 1.6 1.2 1.6 1.1.2-.6-1.2-1.6-1.2-1.8-.1-1.1 1 .5 1.2.4.7-.4-.8-1.2 2.7-6.4 3.7-5.5.3.3.8 0 1.3-.7.4-.7.3-1-.2-.6-.6.3-.9-1.8-.9-5.4.1-3.2-.2-5.9-.7-5.9-.5 0-.6-.6-.1-1.3 1.2-1.9 1.4-4.7.3-4.7-.6 0-1-.5-1-1.1 0-.5.4-.8.8-.5.4.2.8-.6.8-2 0-1.3-.3-2.4-.6-2.4s-.6-.9-.7-2c-.1-1.1.3-2 .9-2 .7 0 .7-.4 0-1.3-1-1.3-1-6.2.1-7.3.3-.4.3-1.4-.2-2.3-.4-.9-.7-4.6-.6-8.2.1-5.7-.1-6.6-1.4-6.1-1.3.5-1.4.3-.4-.9 1-1.2 1-1.8 0-2.9-1-1-.8-1.2.8-.6 1.5.6 1.7.4.8-.5-.6-.6-.9-1.8-.6-2.5.3-.8 0-1.4-.6-1.4s-1 .3-1 .7c.5 3-.2 3.5-2.1 1.8-1.9-1.7-1.9-1.9-.3-3.8 1-1.1 1.3-1.8.7-1.4-1.5.8-4.9-2.9-3.5-3.7 1.2-.8.3-3.6-1.1-3.6-.5 0-.6.4-.3 1 .3.5.1 1-.4 1-.6 0-1.1-.5-1.1-1 0-1.2-1.7-1.4-2.2-.3zm4.4 1.8c.7-.4.5 0-.4.8-1 .8-1.8 1.8-1.8 2.2 0 .5.3.5.7.2 1.2-1.2 4.4 2.5 3.3 3.8-.7.8-.1 2 2 4 2.3 2.2 2.7 3.2 1.9 4.2-.8.9-.7 1.4.4 1.9 1.6.6 1.8 4.8.4 7.2-.5.6-.4 1.2.2 1.2.5 0 .8.8.6 1.7-.1 1 .2 2.6.6 3.5.5 1 .5 1.9 0 2.3-.6.3-.8 1.4-.6 2.5.2 1.1-.1 2.2-.7 2.6-.6.4-.5 1 .3 1.5 1.1.7 1.1.9.1.9s-1 .5-.1 2.1c.8 1.5.8 1.9 0 1.5-.6-.4-1.1-.4-1.2.1 0 .4-.2 1.6-.4 2.6-.2.9.1 1.5.6 1.1.5-.3.7-1 .4-1.5-.4-.5-.2-.9.3-.9 1.5 0 2.2 2.6 1 3.8-.6.6-.7 1.6-.2 2.4 1.2 1.9 1.3 3.7.3 4.4-.5.3-.6 1-.2 1.6 1.9 3.2.7 13.6-1.4 11.4-.4-.5-.2-1.1.5-1.3.6-.3 1.2-1 1.2-1.6 0-.6-.7-.4-1.7.5-1.2 1.3-1.4 2-.5 3.1.9 1.1.5 2-1.9 4.5-1.7 1.8-3.5 3-3.9 2.7-.9-.5-.7-4.6.3-6.2.4-.7 0-1.6-1-2.2-1.1-.6-1.3-1.1-.5-1.1s1-.5.5-1.3c-1.1-1.8-1.2-3.6-.2-4.3.6-.4.6-1.1-.1-1.9-.8-1-.8-1.5 0-2 .7-.4.8-1.1.1-1.8-1.2-1.5-1.2-2.9.1-4.5.7-.8.7-1.7-.2-2.7-1.2-1.4-.7-1.9 1.3-1.6.5.1.7-.4.4-1.1-.2-.7-.9-1.2-1.4-1.1-1.3.2-1.4-3.5-.1-4.3.7-.4.6-.9-.3-1.5-1.1-.6-1-1.2.5-2.8 1-1.1 1.5-2.4 1.2-3-.4-.5-.1-1.3.4-1.6.8-.5.6-1.3-.6-2.6-.9-1-2-1.7-2.3-1.4-.4.2-.6-2.2-.6-5.3.1-3.1-.2-6.2-.7-6.9-.5-.7-.5-1.4.2-1.8.8-.5.8-1.1-.1-2.1-.7-.9-.8-1.9-.2-2.7.8-1 1-3.2.3-4-.1-.1-.3-1.7-.4-3.4-.2-2.5 0-3 1-2.2.7.6 1.9.8 2.6.4zm.5 81c0 .8-.4 1.2-.9.9-.5-.3-.6-1-.3-1.5.9-1.3 1.2-1.1 1.2.6z"/><path d="M666.8 138.3c1 1.4 1 2.7-.2 4.5-.4.7-.3 1.9.4 2.7.8.9.8 1.5 0 2-.7.4-.7 1.1-.2 1.8.5.7.8 2.4.7 3.9-.1 1.5.2 2.5.7 2.2.4-.3.8 0 .8.5 0 .6-.5 1.1-1.2 1.1-.6 0-.3.6.8 1.4 1 .8 1.6 1.8 1.1 2.2-.4.4-.7.2-.7-.4 0-.7-.5-1.2-1.2-1.2-.6 0-.1 1.1 1.2 2.5 1.2 1.3 2.7 2.2 3.1 1.9.5-.3.9-.1.9.4 0 .6-.7 1.3-1.6 1.6-.8.3-1.2 1.1-.9 1.7.4.5-.1 1.9-1 2.9-1.1 1.2-1.3 2-.5 2.5s.8 1.1-.1 2.1c-.9 1.1-.8 1.8.6 3.4 1.8 2 1.2 4.5-.8 3.3-.7-.4-.6 0 .2 1 .9 1.2 1 2.1.3 2.9-1.7 2.1-1.7 2.4-.4 4.1.9 1.1 1 1.7.2 2.2-.8.5-.8 1 0 2 .7.8.7 1.5.1 1.9-.8.5-.8 3.4-.1 4.3.2.2.3.6.4 1 .1.5.4 1.3.8 1.9.4.6.4 1.4.1 1.8-.4.4-.8 1.8-.9 3.2l-.1 2.5 2.8-2.7c2.2-2.1 2.6-3 1.7-4.1-.8-1-.7-1.8.6-3.2 1-1.1 1.3-2.2.8-2.5-1.1-.7-1-3.1.1-4.2.3-.4.5.3.2 1.5-.2 1.1 0 2.1.6 2.1.9 0 .6-4.1-.5-5.9-.4-.5-.2-1.2.3-1.5 1-.7.9-2.5-.3-4.4-.4-.7-.2-2 .6-3 1.2-1.5 1.1-1.6-.4-.3-1 .7-1.8 1.2-1.9 1-.7-3.4-.6-4.5.1-5.4.5-.6.7-2 .6-3-.2-1.1-.1-2.5.3-3 .3-.6.6-1.7.6-2.5s.4-2.1.8-2.8c.5-.6.4-1.2-.2-1.2-.5 0-.8-.8-.6-1.8.1-.9-.1-2.4-.6-3.3-.5-.9-.5-1.9-.2-2.3 1.3-1.3 1-5.6-.4-6.7-.9-.8-1-1.5-.3-2.4.7-.8.1-2-2-4-2.2-2.1-2.7-3.2-1.9-4.1.7-.9.6-1.5-.3-2-2.1-1.4-4-1.4-3-.1zm2.7.6c.3.5.2 1.2-.3 1.5-.5.3-.9-.1-.9-.9 0-1.7.3-1.9 1.2-.6zm3 9.7c-1.1.8-1 1.2.4 2.1 1.5 1 2.1 4.9 1.1 7.3-.1.3-.1.9 0 1.5.9 4.1.8 4.5-.3 3.8-.7-.4-1.6-.8-2.2-.8-.5-.1-.9-.7-.7-1.4.1-.7-.2-1.9-.8-2.6-.8-1-.8-1.5 0-2s.5-1.1-.7-2.1c-1.1-.8-1.3-1.3-.5-1.4.6 0 1.2-.5 1.2-1.1 0-.5-.6-.7-1.2-.3-.7.4-1 .4-.6-.1.4-.4.3-1.4-.3-2.1-.7-.8-.7-1.4.1-1.9.8-.5.8-1.1 0-2-2.4-2.9.2-3.5 3-.8 2.3 2.3 2.6 3 1.5 3.9zm2.1 19.4c-.1 1.6-.5 3.2-.8 3.6-.4.3-.4 1.6-.2 2.9.5 3-1.9 5.1-3.6 3-1-1.1-1-1.8-.1-2.9.9-1 .9-1.6.1-2.1s-.4-1.5 1.1-3.1c1.6-1.7 1.8-2.4.8-2.4-1.2 0-1.1-.2.1-1 2.4-1.5 2.9-1.2 2.6 2zm-1.8 12.7c-.1.5.4 1.9 1.2 3.3 1.8 3.1 2.1 4.8 1 5.5-.5.3-.7 1.2-.4 1.9.3.7-.2 1.6-1.2 2-1.5.6-1.5.8 0 3.1s1.5 2.5-.3 3.7c-1.8 1.1-1.9 1.4-.6 2.9 1.3 1.4 1.3 1.8-.4 3.3-1.7 1.5-1.9 1.5-1.7.2.1-.8.5-1.8.9-2.2.3-.4.3-1.2-.1-1.8-.4-.6-.7-1.4-.8-1.9-.1-.4-.3-.9-.4-1.2-.6-1.3-.5-3.1.2-4.2.5-.6.4-1.4-.2-1.8-.8-.5-.8-1 0-2 .7-.8.7-1.5.1-1.9-1-.7-.9-2.5.3-4.4.4-.7.5-1.6.2-1.9-.3-.3-.1-1.2.5-2 1.3-1.4 2-1.7 1.7-.6z"/><path d="M668 144c0 .5.5 1.2 1 1.5.8.5.8 1.1 0 2-.7.9-.6 1.6.5 2.5.9.7 1.4 1.9 1.1 2.6-.3.7-.1 1.6.5 2 .7.4.6 1-.1 1.9-.8 1-.8 1.5 0 2 .6.4.9 1.3.7 1.9-.3.7.1 1.3.8 1.3 1 0 1.1-.5.5-1.7-.5-1-.6-2-.3-2.4 1.6-1.6.9-5.7-1-6.8-1.7-.9-1.8-1.2-.6-2.2 1.2-.9 1.1-1.4-.8-3.3-1.3-1.2-2.3-1.8-2.3-1.3zm4.7 9.5c0 .8-.4 1.2-.9.9-.5-.3-.6-1-.3-1.5.9-1.3 1.2-1.1 1.2.6zM671.6 169.9c-1.2 1.3-1.4 2.1-.6 2.6.8.5.8 1 0 2-.7.8-.9 1.9-.5 2.5 1.1 1.7 2.5 0 2.1-2.5-.2-1.3-.2-2.6.2-2.9.6-.7 1.2-3.6.8-3.6-.2 0-1.1.9-2 1.9zM671.5 182.7c.3.7.3 1.9-.2 2.5-1.1 1.9-1.2 3.7-.2 4.4.6.4.6 1.1-.1 1.9-.7.8-.7 1.6-.2 1.9 1 .6 2.9-1.2 3.1-2.7.1-.4.1-.8.2-1 .7-2.2.3-3.8-1.3-5.8-1.1-1.3-1.7-1.8-1.3-1.2zm2.1 4.8c-.1.9-.6 1.5-1.2 1.5-.9 0-1.3-1.9-.6-3.3.6-1.2 2 .2 1.8 1.8zM670.9 195.2c-1.1 3.6.3 6 2.4 3.9.7-.7.6-1.2-.6-1.7-.9-.3-1.4-1-1.1-1.5.3-.5.3-.9 0-.9s-.6.1-.7.2zM676.2 206.3c-.6.7-.9 2.2-.8 3.2.5 2.8-.3 3.8-2 2.4-1.8-1.5-3.1-.4-1.6 1.4.9 1 .8 1.7 0 2.5-.7.7-.8 1.2-.4 1.2.5 0 .3.7-.4 1.5-.6.8-.9 1.9-.5 2.5 1.1 1.8 2.5 0 2.1-2.6-.3-1.4-.1-2.2.5-1.9.5.4.6 1.1.3 1.7-.5.7-.2.8.6.3.9-.5 1.1-.4.6.4-.4.6-.2 1.9.6 2.8 1.1 1.4 1.1 1.6-.2.8-.8-.4-.3.5 1.1 2.1 2.4 2.6 3.7 7 1.7 5.8-.4-.3-.5.3-.2 1.3.4 1.4.3 1.5-.4.4-.6-.8-1.2-.9-1.6-.3-.3.6 0 1.3.6 1.5.9.4 1 .6.1.6-.6.1-1.4-.3-1.8-.9-.3-.5-1.3-.7-2.3-.4-1.4.5-1.5.4-.2-.5s1.3-1.1.1-1.1c-1.1 0-1-.4.4-1.4 1.7-1.2 1.8-1.6.5-3.2s-1.3-1.7 0-.9c1.3.8 1.3.6.2-.7-.7-.9-2.2-1.5-3.4-1.3-1.7.4-1.8.2-.6-1.2.9-1.2.9-1.5.1-.9-.9.5-1.1.2-.7-.8.3-.9.2-1.6-.3-1.6-1.5 0-1.2 5.8.4 6.5 1.2.4 1.3.8.4 1.9-.9 1-.9 1.6-.1 2.1s.8 1 0 2c-.8.9-.8 1.5 0 2 .6.3.8 1 .5 1.5-.3.5-.1 1.1.5 1.5.6.4.8 1.1.4 1.6-.3.5-.9.7-1.3.5-.9-.6-.7 14.6.3 16.2.4.7.2 2-.6 2.9-1.3 1.6-1.3 1.9.1 3.8.4.5.7 4.6.6 9-.1 5.6.3 8.5 1.2 9.7 1 1.1 1.1 1.8.3 2.3-.8.5-.8 1 0 2 .6.8.7 1.6.2 1.9-1.4.8-.8 9.6.7 10.5 1 .6.9 1-.2 1.4-1.3.5-1.5 2.4-.7 4.7.1.3.2.8.1 1.2-.2 1.4 1.1.9 2.5-1 1.3-1.6 1.4-1.6.8.3-.5 1.6-.4 1.7.5.5.6-.8 1.8-1.5 2.8-1.6 2.8-.1 5-1.4 5-2.9 0-1.2-.3-1.2-2 0-1.4 1-2.4 1.1-3.7.3-1.5-1-1.5-1.3.7-3.6 1.3-1.4 2.6-2.2 3-1.9.3.4.1.7-.5.7s-1 .9-.9 2c.1 1.1.5 2 1 2s.6-.7.3-1.6c-.3-.8-.2-1.2.3-.9.5.3 1.2.1 1.5-.4.4-.5.2-1.2-.4-1.6-.7-.4-.7-1.2 0-2.4.5-1 .6-2.1.2-2.5-.3-.4-.7-4.4-.8-8.9-.2-9.9-.1-9.7-1.4-9.7-1.2 0-.9 2.2.5 3.2.6.5.4.8-.5.8-1.1 0-1.2.2-.3.8.9.6.6 1.1-.8 2.1-1.6.9-1.9.9-1.4 0 .5-.8.4-1-.3-.5-2 1.2-5.3 1.6-4.7.5.4-.5.1-.8-.7-.7-.8.2-1.3-.6-1.2-2.2 0-1.4.5-2.4 1.2-2.2.7.1 1.2-.3 1.2-.9 0-.6-.7-.8-1.7-.4-1.5.5-1.6.4-.5-.7s1.7-.9 3.3 1.2c1.1 1.5 1.7 1.8 1.3.7-.6-1.8.5-2.3 2.2-1 .5.5.3.1-.6-.7-1.8-1.9-2.4-4-1-4 .6 0 1 .6 1 1.4 0 .8.4 1.7.9 2.1.6.3.8-.3.6-1.4-.3-1.4.1-1.8 1.2-1.4 1.2.5 1.2.7.1 1.5-1.1.8-1 .9.1.6.8-.2 1.5-1.1 1.7-2 .1-1.1-.3-1.5-1.4-1.1-1.4.4-1.3.2.2-1.1 1.8-1.5 1.8-1.6.1-4.2-1.6-2.4-1.6-2.6-.1-2.1 1.3.5 1.5.3.8-1.1-.4-.9-.8-4.3-.7-7.5.2-5.9-.4-6.8-2.5-4.2-1 1.2-1 1.8.1 3.1 1.7 2 2 4.2.8 5-.6.3-.5 1.2.3 2.2.9 1.1.9 1.3.1.9-.8-.5-1.1-.1-.8 1.3.3 1.4 0 1.8-.8 1.3-.7-.4-.5.2.3 1.3 1.4 1.8 1.4 1.8-.2.5-1-.7-1.5-1.7-1.2-2.2.3-.5 0-.9-.5-.9-1.6 0-1.4 1.1.6 3.2 1.2 1.3 1.4 2.1.5 3-.8.8-1.8.5-3.8-1.1-1.5-1.1-2.3-2.1-1.9-2.1.5 0 1.7.7 2.7 1.7 3.1 2.8 3.2.7.2-3.3-1.6-2.1-2.3-3.4-1.6-3 1.2.7 1.2.4.1-1.5-.7-1.3-1.2-2.8-1.1-3.2.1-.5-.3-.5-.9-.1-.8.4-.9.3-.5-.4s.1-1.2-.6-1.2c-1 0-1-.2.1-.9s1.1-.9 0-1.3c-1-.3-1-.6-.1-1.2.7-.4 1.2-.2 1.2.3 0 .6.5 1.1 1.1 1.1.8 0 .7-.6-.2-1.8-1.3-1.6-1.3-1.6.5-.2 1.8 1.3 1.9 1.3 1.2 0-.4-.8 0-.6 1 .5 1.4 1.6 1.6 1.7 1.1.3-.4-1-.3-1.7.1-1.5.4.1 1.8-.6 3.2-1.6 1.3-.9 1.8-1.7 1.1-1.7-1 0-1.1-.3-.3-1.3 1.2-1.4 1.1-3.5-.1-5.5-.5-.7-.3-1.2.4-1.2.8 0 .8-.4.2-1.3-1.3-1.5-1.3-4.7 0-4.7.6 0 .6-.5 0-1.3-.5-.6-.9-5.3-.9-10.4.1-5-.2-8.9-.6-8.6-.5.2-.8-.1-.8-.6 0-.6.5-1.1 1.1-1.1.5 0 .7-.5.4-1-.8-1.4-2-1.3-3.3.3zm1.5 2.4c.2 1.6.4 6 .6 10 .2 5.8.1 7-1 6.1-.7-.5-1.1-1.4-.8-1.8.3-.5.1-1.1-.5-1.5-1.5-.9-1.2-2.8.3-2.2 1 .4 1.3-.3 1.2-2.1 0-1.4-.7-2.7-1.5-3-.9-.2-1.1 0-.5.5 1.4 1.1 1.7 3.3.5 3.3-.5 0-1-.7-1-1.6 0-.9-.5-1.2-1.2-.8-.7.4-1 .4-.6-.1.4-.4.2-1.5-.5-2.4-1-1.4-1-1.4.3-.4 2.1 1.6 4.1.2 3.5-2.6-.4-2 0-4.1.8-4.1.1 0 .3 1.2.4 2.7zm-6.2 16.1c-.3.3 0 1.2.7 1.9.9 1.1.9 1.6-.2 2.3-1.9 1.2-3.4.1-2.1-1.4.7-.8.7-1.6 0-2.3-.6-.6-.5-1 .6-1 .8 0 1.3.3 1 .5zm-.7 7.4c-.2.7.4 1.3 1.2 1.3.8 0 2.1.4 2.8.9.7.4 1.9.2 2.7-.4 1.1-.9 1.5-.9 1.5-.1 0 .6-.4 1.1-1 1.1-.5 0-1 .4-1 1 0 .5.5.9 1.1.7 1.5-.3 2.1 3.4.7 5-.6.7-.7 1.3-.3 1.3.4 0 .2.6-.4 1.3-.6.8-2.3 1.3-3.8 1.2-1.6-.1-3.3.2-3.9.6-.7.6-1-.3-.9-2.7 0-2.2.8-4.1 1.8-4.9 1.6-1.1 1.6-1.3.2-1.9-.9-.3-1.4-1-1-1.5.3-.5.1-1.2-.5-1.6-.6-.4-.8-1.1-.5-1.6.9-1.3 1.5-1.1 1.3.3zm8.8 15.8c0 1.2-.4 1.6-.9 1.1s-.6-1.4-.3-2c1-1.5 1.2-1.4 1.2.9zm-7.9 8.4c-.3.6.7 2.7 2.1 4.6 2 2.7 2.1 3.1.5 1.7-1.1-1-2.6-1.7-3.4-1.5-1.5.4-1.9-2.2-.6-4 .6-.8.5-1.8-.4-3-1.3-1.5-1.2-1.6.4-.3 1 .8 1.6 1.9 1.4 2.5zm2.8 11.9c.2 2.1-.1 2.5-1.1 1.6-.7-.6-1.7-.8-2.1-.6-.5.3-.9-1-.9-2.9 0-3.1.2-3.3 2-2 1.1.7 2.1 2.5 2.1 3.9zm6.5-5c0 .2-1 1.2-2.1 2.3-2.2 1.9-2.2 1.9-.8-.4 1.2-1.9 2.9-3 2.9-1.9zm-6.2 16.1c2.2-.4 2.8.4 1.5 2.2-.5.5.2-.1 1.3-1.4 1.6-1.8 2.3-2.1 2.9-1.2.5.9.4 1.1-.3.6-.7-.4-1.2-.2-1.2.3 0 .6.5 1.1 1.2 1.1.6 0 .3.7-.8 1.5-1.6 1.3-1.6 1.4-.1.9 2-.7 2.3.6.5 2.4-.9.9-.9 1.2.2 1.2.7 0 1 .3.7.7-.4.3-.2 1.2.3 1.8.8.9 0 2.3-2.8 5.1-2.2 2.2-3.7 4.5-3.5 5.2.3.6.9 1 1.3.7.5-.3 1.1-.2 1.3.2.3.5-1 .8-2.9.9-2.2 0-3-.2-2.2-.7 1-.7 1-.9-.2-.9-1.1 0-1-.4.4-1.2 1.9-1.1 1.9-1.1.1-2.4-1.1-.8-1.3-1.4-.6-1.4.7 0 .9-.5.4-1.2-1.1-1.9-1.3-6.7-.2-7.4.6-.4.6-1.1-.1-1.9-.8-1-.8-1.5 0-2s.6-1.4-.7-2.8c-1-1.3-1.2-1.7-.3-1.1.8.7 2.5 1 3.8.8z"/><path d="M672.2 234.9c-1.1.6-1 1 .5 1.5 1.7.7 1.7.8-.2 2.2-1 .8-2 2.5-2 3.7-.2 2 .3 2.3 3.4 2.2 2 0 3.7-.6 3.7-1.3.1-.7.3-1.3.4-1.5.1-.1.4-1.2.5-2.5.1-1.2 0-2-.3-1.7-.3.3-1.5-.4-2.6-1.4-1.3-1.3-2.6-1.7-3.4-1.2zm5 6.4c-.7.8-1 1.6-.7 1.9.3.3-.7.4-2.1.3-1.8 0-2.8-.7-3-1.9-.1-1 0-1.5.3-1.2.3.3 1.2-.2 1.9-1.2.9-1.2.9-2.1.1-3.2-.6-.8.2-.3 1.8 1.2 2.2 2.1 2.6 3 1.7 4.1z"/><path d="M673.7 240.4c-1.4 2-1.4 2.4-.2 2.2 2.5-.4 4.1-2.4 2.8-3.7-.7-.7-1.5-.3-2.6 1.5zm1.4.9c-1 .9-1.1.8-.5-.6.3-1 .9-1.5 1.2-1.2.3.3 0 1.1-.7 1.8zM670.3 259.5c0 .8.4 1.2.9.9.5-.3.6-1 .3-1.5-.9-1.3-1.2-1.1-1.2.6zM671.9 265.8c1.1.8 1.1 1 0 1.4-1 .3-.9.6.3 1 1.1.5 1.5.2 1.4-1-.2-.9-.9-1.8-1.7-2-1.2-.3-1.2-.2 0 .6zM673.6 281.1c.2.4 0 1.1-.6 1.4-.8.5-.8 1.1 0 2 .6.7.7 1.6.3 1.8-.8.5-1 6.7-.3 7.4.2.3.6 1.6.9 3 0 .4 1.7-.8 3.6-2.7 3.1-3 3.3-3.5 2-5.3-1.1-1.6-1.2-2.4-.3-3.4.6-.8.7-1.3.2-1.2-2.1.4-2.6-.2-1.3-1.9 1.3-1.6 1.3-1.6-.7.1-2.2 1.8-4.1 1.2-2.4-.8.7-.8.5-1.2-.5-1.2-.8 0-1.2.4-.9.8zm2.7 3.4c.4 0 .6.2.5.5-.2.3.5 1.7 1.4 3.2 1.6 2.5 1.6 2.6-1.3 5.4-1.7 1.6-3 2.4-2.9 1.9.1-.6.1-1.2 0-1.5-.7-1.9-.7-4.1.1-4.6.5-.3.9-1 .9-1.5 0-.6-.6-.7-1.2-.3-1 .6-1 .5-.1-.7 1-1.2 1-1.8 0-2.9-1-1-.9-1.1.3-.4.8.5 1.8.9 2.3.9z"/><path d="M675.9 285.7c-.1.5-.1 1.2 0 1.7.1.4-.2 1.3-.7 2-.7 1-.8 1.8-.3 4.3 0 .3 1-.2 2.1-1.2 1.7-1.5 1.8-1.9.4-3.9-.8-1.3-1.1-2.6-.7-2.9.3-.4.3-.7 0-.7-.4 0-.8.3-.8.7zm1.5 4.2c.3.5-.1 1.4-.8 2-1.2 1-1.4.9-1.1-.6.2-1 .4-1.9.4-2.1.2-.5 1-.2 1.5.7zM672.7 221.7c-.4.3-.1 1.3.5 2.1 1.6 1.9 1.9 4.4.7 5.8-1.8 2.1.7 2.5 2.6.4 1.8-2 1.8-2.1-.8-4.8-1.5-1.6-2.4-3.1-2-3.5.3-.4.4-.7.1-.7-.2 0-.8.3-1.1.7zM672 250c-1.2.8-1.2 1-.1 1 .7 0 1.1.6.8 1.3-.3.7.1 2.1.9 3.1.7 1.1 1.2 2.2.9 2.5-.2.4.5.7 1.5.7s1.7-.7 1.5-1.6c-.1-.8 0-2 .4-2.5 1-1.8.9-3.5-.2-4.2-1.9-1.2-4.1-1.3-5.7-.3zm5.5 2.1c.2.8-.3 2.2-.9 3.1-1.1 1.5-1.3 1.5-2.4-.2-.7-1.2-.8-2.1-.2-2.5.6-.4.8-1 .5-1.5-.3-.4.2-.7 1.2-.6.9.2 1.7.9 1.8 1.7z"/><path d="M675.1 252.4c-.8 1-.9 1.6-.1 2.1.5.3 1 .5 1.1.3.4-1.8.7-3.8.4-3.8-.1 0-.8.6-1.4 1.4zM676.2 272.5c.3.8-.6 1.7-1.4 1.4-2.4-.7-3.4-.4-3.5 1.2-.1 1.1.2 1.7.7 1.4.5-.3 1.1-.1 1.5.5.4.7 1.2.7 2.4 0 1-.5 2.1-.7 2.4-.4.3.3.4-.1.3-1-.1-.9-.8-2.2-1.5-2.9-.7-.6-1.1-.8-.9-.2zm-1.4 4c-.3.3-.9-.2-1.2-1.2-.6-1.4-.5-1.5.5-.6.7.7 1 1.5.7 1.8zM677.5 297.9c-.3.5-.2 1.2.3 1.5.5.3.9-.1.9-.9 0-1.7-.3-1.9-1.2-.6zM670.7 309.6c-.7.8.3 3.4 1.3 3.4.9 0 .8-2.6-.1-3.5-.3-.3-.8-.2-1.2.1zM677.9 314.3c-.1.3-.7 3-1.3 5.4-.3 1.6 0 2 1.2 1.8.9-.2 2-.4 2.4-.4.4-.1.6-1 .5-2.1-.1-1.4-.6-1.9-1.7-1.5-1.1.4-1 .1.3-.9 1.5-1.2 1.6-1.4.2-2-.8-.3-1.5-.4-1.6-.3zm2.1 5.3c0 .8-1.9 1.3-2.4.6-.3-.5.1-.9.9-.9s1.5.2 1.5.3zM671.3 319.5c0 .8.4 1.2.9.9.5-.3.6-1 .3-1.5-.9-1.3-1.2-1.1-1.2.6zM671.8 327.1c-.7.5-.9 1.1-.5 1.6.5.4 1.2.1 1.7-.7.7-1.1.9-1 .8.7-.1 1.1-.7 2-1.3 1.9-.5-.2-.7-.1-.2.1.4.3.4 1 0 1.6-1.2 2-1.1 5.7.3 6.8.8.6 1.1 1.6.7 2.2-.4.6-.1.7.8.1.8-.4 2.4-.9 3.7-1 1.2 0 2.6-.5 3-.9.4-.5-.1-.5-1-.2-2 .7-4.5-1.8-2.8-2.8.8-.5.8-1.1.1-1.9-.6-.7-.8-1.6-.4-2 .4-.4.1-1.1-.7-1.6-1.2-.7-1.2-1.2.3-2.7 1.6-1.8 1.5-1.9-.8-1.9-1.4 0-3.1.3-3.7.7zm3 5.2c-.1.2.3 1.1 1 2 .9 1.1 1 1.7.2 2.2-.8.5-.8 1 0 2s.8 1.3-.2 1.1c-2.4-.3-3.5-1.5-3.4-3.8.2-2.5 1.5-5.2 2.3-4.4.2.2.3.6.1.9z"/><path d="M673.9 332.2c-.6 1.7-.4 6 .4 6.5.6.3.7.1.3-.5-.3-.6-.2-1.4.4-1.7.8-.5.8-1.1.1-1.9-.6-.7-.8-1.6-.4-1.9.3-.4.3-.7 0-.7-.4 0-.7.1-.8.2zM680 358c-.9.6-1 1-.3 1 .6 0 1.5-.5 1.8-1 .8-1.2.4-1.2-1.5 0zM681.9 365.3c0 .1-.2 1.6-.3 3.3-.2 2.9 0 3.1 1.6 2.1 2.2-1.4 2.4-4.3.3-5.1-.8-.3-1.5-.4-1.6-.3zm1.5 3.7c-.6.6-1 .3-1-1s.4-1.6 1-1c.7.7.7 1.3 0 2zM629.5 435c-.2.3.5.6 1.5.7 1.1.1 2.2-.2 2.4-.5.3-.4-.4-.8-1.5-.8s-2.2.3-2.4.6zM641.6 435.2c.3.5 1 .6 1.5.3 1.3-.9 1.1-1.2-.6-1.2-.8 0-1.2.4-.9.9zM627.9 438.7c-.9 1.1-1 1.4-.1.9.6-.4 1.2-.2 1.2.3 0 .6-.6 1.1-1.2 1.1-.9 0-.8.4.2 1 1.2.8 1.2 1 .1 1-2 0-.8 1 1.7 1.5 1.1.2 2.6-.2 3.2-.9.6-.8 2.4-1.2 4-1.1 1.6.1 2.7-.1 2.5-.5-.3-.5-1.3-.7-2.3-.6-.9.2-3.1-.8-4.8-2.1-2.9-2.2-3.2-2.2-4.5-.6zm4.1 1.9c0-.4.5-.4 1.1 0 .8.4.8.9 0 1.7-2.1 2.1-3.7 1.5-3.6-1.4 0-2.6.1-2.7 1.2-1.2.7.9 1.3 1.3 1.3.9z"/><path d="M630.6 442.2c.3.5 1 .6 1.5.3 1.3-.9 1.1-1.2-.6-1.2-.8 0-1.2.4-.9.9z"/></svg>