<?xml version="1.0" standalone="no"?>
<!DOCTYPE svg PUBLIC "-//W3C//DTD SVG 20010904//EN"
 "http://www.w3.org/TR/2001/REC-SVG-20010904/DTD/svg10.dtd">
<svg version="1.0" xmlns="http://www.w3.org/2000/svg"
 width="700.000000pt" height="700.000000pt" viewBox="0 0 700.000000 700.000000"
 preserveAspectRatio="xMidYMid meet">
<metadata>
Created by potrace 1.11, written by Peter Selinger 2001-2013
</metadata>
<g transform="translate(0.000000,700.000000) scale(0.100000,-0.100000)"
fill="#000000" stroke="none">
<path d="M6387 5823 c-1 -1 -96 -4 -212 -8 -115 -4 -250 -8 -300 -10 -49 -2
-173 -7 -275 -10 -102 -3 -232 -8 -290 -10 -58 -2 -186 -7 -285 -10 -99 -3
-234 -8 -300 -10 -66 -3 -190 -7 -275 -10 -221 -8 -403 -14 -570 -20 -244 -9
-418 -15 -565 -20 -77 -3 -207 -7 -290 -10 -82 -3 -211 -7 -285 -10 -308 -10
-451 -15 -565 -20 -66 -3 -199 -7 -295 -10 -96 -3 -224 -8 -285 -10 -60 -2
-198 -7 -305 -11 -107 -3 -224 -8 -260 -9 -36 -2 -114 -4 -173 -5 l-108 -2 5
-177 c3 -97 8 -237 11 -311 12 -306 27 -768 29 -849 l1 -54 -55 -2 c-86 -4
-342 -17 -375 -20 -16 -2 -41 -3 -53 -4 l-24 -1 7 -152 c4 -84 8 -175 10 -203
2 -27 6 -108 10 -180 9 -199 19 -396 30 -590 3 -44 7 -129 10 -190 3 -60 7
-144 10 -185 2 -41 7 -129 10 -195 3 -66 8 -145 10 -175 2 -30 6 -116 10 -190
3 -74 7 -164 10 -200 2 -36 7 -128 10 -205 3 -77 8 -156 10 -175 2 -19 6 -98
10 -175 12 -272 16 -319 27 -326 7 -4 15 -6 18 -4 3 1 66 6 140 9 74 4 167 9
205 11 39 2 122 6 185 10 63 3 153 8 200 10 88 6 167 10 375 20 66 3 156 7
200 10 44 3 132 7 195 10 63 3 144 8 180 10 69 4 243 13 382 20 46 2 124 6
173 9 50 3 146 8 215 11 69 3 150 8 180 10 30 2 111 6 180 9 69 4 161 8 205
11 44 3 130 7 190 10 276 14 450 23 565 30 41 3 134 7 205 10 72 3 155 8 185
10 30 2 116 7 190 10 74 4 162 8 195 10 33 2 121 6 195 10 74 3 155 8 180 10
25 2 108 7 185 10 77 4 165 8 196 10 30 2 120 6 200 10 79 4 158 9 174 10 17
2 61 3 99 4 l68 1 -7 152 c-3 84 -8 176 -10 203 -3 51 -15 263 -20 370 -10
231 -17 356 -20 393 -4 44 -4 44 47 44 15 1 25 5 22 9 -3 5 0 9 5 9 6 0 11 5
11 11 0 8 -6 7 -16 -2 -17 -14 -63 -21 -65 -10 0 3 -2 17 -5 30 -3 14 3 32 13
44 16 18 16 20 1 14 -17 -6 -20 15 -3 30 4 4 5 2 1 -4 -4 -7 -2 -13 3 -13 6 0
11 3 11 8 0 4 36 8 80 8 44 0 80 -4 80 -8 0 -4 5 -8 11 -8 5 0 8 4 5 8 -2 4
11 8 29 9 27 0 33 -3 32 -18 -1 -11 -5 -19 -10 -19 -5 0 -6 7 -3 16 6 15 3 14
-21 -1 -27 -18 -28 -18 -13 1 14 19 14 19 -8 0 -13 -12 -22 -14 -22 -7 0 7 -5
9 -11 5 -8 -4 -7 -9 2 -15 8 -5 9 -9 4 -9 -6 0 -17 6 -25 12 -11 10 -11 9 0
-7 14 -18 14 -19 -2 -6 -10 7 -15 17 -12 22 3 5 0 9 -5 9 -14 0 -14 -10 2 -30
6 -9 0 -3 -15 14 -27 29 -28 29 -47 12 -11 -10 -26 -15 -33 -11 -7 4 0 -4 16
-18 19 -15 40 -23 58 -22 18 2 25 -1 21 -9 -4 -6 2 -4 13 4 18 14 18 14 4 -5
-14 -19 -14 -19 4 -5 19 15 19 14 2 -12 -20 -30 -29 -36 -20 -15 3 8 -2 14
-11 14 -9 0 -14 -6 -11 -12 2 -6 -2 -12 -9 -12 -7 0 -11 7 -8 16 4 14 4 14 -6
1 -6 -8 -11 -18 -11 -21 0 -8 108 -4 116 4 4 3 15 2 25 -4 11 -5 19 -6 19 -2
0 4 65 8 144 8 120 0 143 2 138 14 -4 10 -1 12 9 5 21 -13 76 -13 76 0 0 6 -8
12 -18 12 -10 0 -16 -3 -14 -6 2 -3 -6 -7 -18 -7 -22 -2 -22 -2 -2 10 11 6 22
12 25 12 19 1 28 18 22 38 -4 12 -7 82 -7 154 0 73 -3 133 -7 133 -5 0 -8 5
-8 11 0 5 5 7 12 3 7 -5 8 -3 3 6 -5 8 -9 76 -10 153 -1 76 -5 141 -11 145
-13 10 -16 32 -4 32 5 0 10 7 10 15 0 8 -5 15 -11 15 -5 0 -8 -4 -4 -9 3 -5 0
-13 -6 -17 -8 -4 -9 -3 -5 5 4 7 2 10 -5 9 -20 -5 -17 58 3 84 12 15 16 17 12
6 -3 -10 -2 -18 3 -18 4 0 9 14 9 30 2 27 0 29 -11 14 -7 -10 -23 -18 -35 -19
-22 -2 -22 -1 -4 13 17 13 17 14 1 8 -12 -4 -16 -2 -11 6 5 7 2 8 -7 3 -11 -6
-12 -5 -2 5 10 11 9 18 -5 34 -16 20 -16 20 3 6 l20 -15 -20 25 -20 25 22 -19
c13 -10 20 -23 16 -29 -4 -6 0 -8 10 -4 17 6 31 -5 20 -17 -11 -10 -12 -37 -2
-30 5 3 9 12 9 20 0 8 6 14 13 14 8 0 7 4 -3 10 -13 9 -13 10 0 10 13 0 13 1
0 10 -13 9 -13 10 0 10 13 0 13 1 0 10 -13 9 -13 11 0 20 8 5 10 10 4 10 -13
0 -13 42 1 52 6 5 6 8 -1 8 -12 0 -13 44 -1 56 3 4 3 14 -2 23 -4 9 -7 42 -6
73 0 31 -2 55 -6 52 -4 -2 -10 0 -14 6 -3 5 -2 10 4 10 5 0 9 32 8 75 0 41 -5
75 -10 75 -5 0 -4 7 3 15 15 18 3 40 -14 26 -7 -6 -16 -8 -19 -4 -4 3 -7 0 -7
-8 0 -12 -2 -11 -11 1 -9 13 -10 12 -5 -3 4 -12 2 -16 -6 -11 -7 5 -8 3 -3 -7
7 -11 5 -11 -10 1 -15 12 -17 12 -10 1 6 -10 4 -12 -6 -6 -11 7 -11 5 1 -10
12 -15 12 -17 1 -10 -10 5 -12 4 -7 -4 4 -6 13 -8 19 -4 7 4 5 -2 -3 -13 -14
-18 -14 -18 3 -5 25 20 46 -1 26 -25 -12 -16 -12 -17 1 -9 33 20 46 13 45 -27
0 -23 -6 -43 -15 -48 -12 -8 -12 -10 -1 -10 8 0 11 -3 8 -6 -4 -4 -14 -1 -24
7 -15 12 -16 12 -8 -1 7 -12 6 -13 -7 -3 -8 7 -19 9 -24 5 -4 -4 -2 2 6 12 13
18 13 19 0 11 -13 -8 -13 -7 0 10 13 17 13 18 0 11 -8 -4 -7 -1 3 7 12 10 14
17 8 22 -6 3 -11 1 -11 -6 0 -7 -3 -9 -7 -6 -3 4 2 16 12 27 10 11 15 23 11
27 -3 4 -14 -2 -24 -12 -16 -18 -16 -18 3 -4 18 13 19 13 7 -3 -8 -9 -21 -14
-30 -11 -13 4 -14 3 -3 -5 8 -6 10 -15 6 -22 -5 -8 -4 -11 1 -7 6 3 10 -5 10
-18 0 -13 -4 -21 -10 -18 -5 4 -6 1 -1 -7 6 -9 4 -11 -6 -5 -12 7 -12 6 -1 -7
10 -13 10 -17 0 -21 -7 -3 -3 -4 9 -4 12 1 20 4 18 7 -2 4 2 7 10 7 8 0 11 -5
8 -11 -4 -6 0 -5 9 2 14 11 16 11 14 -1 -1 -8 -8 -23 -16 -33 -14 -18 -14 -18
5 -4 19 14 19 14 5 -4 -11 -14 -11 -18 -2 -12 11 7 12 4 3 -11 -7 -14 -7 -23
2 -33 9 -10 9 -14 -1 -17 -6 -3 -10 -9 -7 -13 3 -5 12 -7 21 -3 13 5 13 9 -2
32 -14 20 -14 23 -2 14 8 -7 17 -11 19 -8 3 2 4 -9 4 -25 -1 -36 -7 -43 -42
-45 -18 -1 -27 -7 -25 -15 3 -11 0 -11 -15 1 -17 13 -17 13 0 -7 9 -11 17 -25
17 -30 0 -5 -7 -1 -14 9 -8 10 -18 17 -22 15 -4 -2 -8 7 -9 19 -1 15 3 19 14
15 15 -5 15 -4 0 14 -12 14 -15 42 -15 112 1 55 -3 92 -9 92 -7 0 -7 3 0 8 11
8 16 52 6 52 -4 0 -7 9 -8 20 -1 11 2 20 5 20 4 0 8 9 9 20 1 13 -2 18 -10 13
-7 -4 -6 0 2 10 9 11 9 17 2 17 -12 0 -10 27 2 48 5 6 4 12 -2 12 -6 0 -9 17
-8 38 2 20 -1 45 -6 56 -6 12 -6 16 1 12 6 -3 13 -2 17 4 3 5 2 10 -3 10 -5 0
-12 9 -15 19 -4 15 -1 18 12 14 15 -6 15 -5 0 13 -12 14 -15 39 -14 99 1 44
-1 85 -5 90 -8 13 -7 27 3 43 5 6 5 18 1 24 -5 7 -9 50 -9 96 -1 71 1 82 14
77 11 -3 9 0 -3 10 -14 11 -16 15 -5 15 12 1 12 2 -1 13 -22 18 -23 38 -2 30
14 -6 15 -4 5 8 -10 12 -10 18 0 29 10 10 9 12 -3 8 -13 -5 -15 10 -15 96 0
55 -4 107 -10 115 -7 11 -7 13 3 7 13 -8 17 6 5 18 -10 10 -11 66 -1 72 5 3 3
13 -4 22 -10 12 -10 16 0 19 6 3 9 10 5 16 -12 19 -14 47 -3 47 6 0 10 5 10
11 0 5 -4 8 -9 5 -15 -10 -7 119 8 138 8 9 11 19 8 23 -4 3 -2 12 4 19 5 7 6
15 1 17 -4 3 -13 -3 -20 -14 -7 -11 -8 -19 -2 -19 14 0 12 -17 -3 -23 -9 -3
-12 18 -12 92 1 53 -3 101 -7 108 -5 6 -4 14 2 18 8 5 8 11 -1 21 -9 11 -9 17
0 28 9 11 9 15 -1 19 -11 4 -10 6 0 6 8 1 10 6 6 13 -5 7 -9 28 -10 48 -1 19
-3 66 -5 103 l-4 68 -118 -3 c-65 -2 -119 -4 -120 -5z m420 -1878 c-14 -10
-15 -14 -4 -18 13 -5 17 -41 5 -52 -3 -3 -20 9 -39 27 -19 17 -29 29 -23 25 7
-4 17 0 24 8 7 8 19 15 26 15 8 0 14 5 14 12 0 6 3 8 7 4 5 -4 0 -13 -10 -21z
m18 -239 c1 -33 -3 -43 -14 -41 -8 1 -17 8 -19 15 -3 9 1 11 14 7 18 -7 18 -6
0 8 -14 11 -16 15 -5 15 12 0 12 2 -1 10 -13 9 -13 10 0 11 12 0 12 2 1 6 -11
4 -11 7 0 14 19 11 23 3 24 -45z m8 -71 c4 -8 3 -16 -1 -19 -4 -3 -9 4 -9 15
-2 23 3 25 10 4z m-8 -87 c0 -29 -4 -59 -8 -65 -5 -7 -4 -13 1 -13 5 0 9 -7 9
-15 0 -16 -12 -11 -44 18 -13 11 -23 19 -24 16 0 -2 -2 -12 -4 -21 -2 -9 3
-22 11 -29 10 -8 11 -15 4 -24 -7 -8 -7 -15 -1 -19 5 -3 7 -16 3 -29 -5 -20
-4 -21 12 -8 19 16 32 9 20 -11 -15 -24 -11 -63 10 -85 11 -13 15 -23 10 -23
-5 0 0 -7 10 -15 11 -8 14 -15 8 -15 -14 0 -12 -21 3 -32 6 -5 5 -8 -3 -8 -8
0 -10 -5 -5 -12 11 -18 11 -208 0 -208 -5 0 -6 8 -2 18 5 14 4 15 -7 4 -11
-11 -10 -15 2 -25 8 -7 16 -21 18 -32 1 -11 4 -27 6 -35 2 -8 -4 -24 -13 -34
-13 -16 -14 -19 -1 -14 22 8 22 -148 0 -162 -13 -9 -8 -14 12 -11 3 0 5 -7 3
-17 -1 -9 2 -22 7 -29 5 -7 5 -14 -1 -17 -5 -4 -13 -2 -16 4 -4 6 -14 1 -25
-12 -11 -13 -19 -19 -20 -14 0 5 -7 2 -16 -5 -15 -13 -114 -22 -114 -11 0 3 6
13 13 22 6 9 2 5 -10 -8 -13 -13 -23 -18 -23 -13 0 6 -5 11 -11 11 -5 0 -8 -4
-5 -8 3 -5 -1 -9 -9 -9 -8 0 -15 4 -15 9 0 5 -6 6 -12 1 -7 -4 -39 -8 -70 -9
-32 -1 -59 -2 -60 -4 -2 -1 -13 -3 -26 -4 -21 -3 -21 -1 -7 20 10 15 11 25 4
29 -6 4 -3 12 8 20 10 7 21 11 25 9 4 -2 10 0 13 6 5 8 11 7 21 -1 14 -12 28
-6 30 12 1 5 2 14 3 19 1 13 31 13 31 -1 0 -5 5 -7 10 -4 6 4 7 12 3 18 -4 7
0 6 10 -2 9 -7 17 -9 17 -4 0 5 20 9 44 9 30 0 42 -4 39 -12 -3 -8 3 -11 14
-9 10 2 20 4 23 4 3 1 -2 6 -10 12 -12 8 -10 9 9 4 16 -5 21 -4 17 4 -4 6 -2
11 4 11 6 0 8 5 5 10 -4 6 -12 7 -18 3 -7 -4 -6 0 2 10 7 9 9 17 5 17 -5 0 -9
48 -9 108 0 59 -3 113 -8 120 -6 7 -5 12 1 12 6 0 8 10 5 23 -3 12 -6 66 -7
119 -1 53 -5 100 -9 104 -4 4 -2 13 4 20 7 8 7 14 -1 19 -7 4 -7 12 0 26 8 14
7 19 -2 20 -10 0 -10 2 1 6 11 5 11 7 0 14 -11 7 -11 9 -1 9 8 0 10 5 5 13
-10 17 -12 57 -1 51 4 -3 8 0 8 5 0 6 -5 11 -12 11 -6 0 -3 7 8 15 16 13 16
14 1 9 -13 -5 -16 -2 -14 12 1 11 6 25 10 32 5 7 3 12 -4 12 -7 0 -4 7 7 15
16 13 16 14 2 9 -12 -4 -18 -1 -18 10 0 18 15 22 25 6 3 -5 12 -7 20 -4 8 4
12 11 8 18 -14 21 -11 34 7 31 10 -2 26 3 37 10 10 8 18 15 18 15 1 0 1 -24 0
-52z m-443 -922 c16 -22 16 -23 -5 -22 -35 2 -50 15 -36 32 15 19 21 17 41
-10z"/>
<path d="M6770 3922 c0 -5 10 -17 22 -28 19 -15 20 -16 9 -1 -11 14 -11 17 0
17 11 0 11 2 -1 10 -19 12 -30 13 -30 2z"/>
<path d="M6800 3571 c-8 -6 -17 -8 -21 -5 -4 2 -10 0 -13 -5 -4 -5 -2 -12 3
-16 6 -3 8 -12 5 -20 -4 -8 -10 -13 -14 -10 -8 5 -28 -14 -29 -27 -1 -5 -1 -9
-2 -10 -6 -21 -5 -37 1 -33 5 3 11 1 14 -4 4 -5 2 -12 -4 -16 -6 -4 -8 -11 -4
-16 3 -5 2 -15 -3 -22 -8 -11 -10 -29 -3 -42 7 -13 5 -52 -2 -67 -5 -10 -4
-19 2 -23 8 -5 8 -11 0 -20 -6 -7 -7 -16 -2 -18 4 -3 8 -38 7 -76 -1 -39 3
-71 8 -71 5 0 4 -6 -2 -14 -8 -10 -9 -21 -3 -33 5 -10 8 -76 7 -147 -1 -93 3
-132 12 -142 17 -16 17 -27 1 -18 -10 6 -10 5 -1 -7 9 -11 8 -20 -2 -39 -8
-14 -14 -21 -15 -16 0 5 -6 4 -12 -1 -7 -5 -19 -8 -25 -7 -7 1 -18 2 -24 3 -5
0 -8 5 -5 9 2 4 -6 8 -20 8 -13 0 -24 -3 -24 -7 0 -4 -8 -6 -17 -4 -10 1 -23
-2 -30 -7 -7 -5 -14 -5 -18 2 -3 6 -11 8 -16 4 -5 -3 -7 -9 -4 -14 9 -15 -24
-34 -38 -21 -8 6 -17 7 -21 3 -4 -4 -13 -7 -19 -7 -7 0 -12 -7 -12 -15 0 -8
-4 -20 -8 -27 -4 -6 -3 -14 2 -17 5 -4 12 -3 15 2 2 4 31 7 63 7 32 -1 63 1
68 4 6 3 22 6 37 6 14 0 35 8 46 18 23 21 38 10 17 -13 -13 -15 -11 -16 29
-15 24 0 50 6 58 13 8 6 17 9 21 6 3 -3 11 4 17 16 10 18 14 19 28 8 15 -11
15 -11 5 3 -7 9 -11 18 -8 21 3 3 -1 11 -9 17 -14 12 -11 45 3 37 9 -6 7 96
-2 112 -5 7 -3 12 5 12 8 0 6 5 -5 11 -15 9 -16 13 -5 26 15 19 19 43 7 43 -6
0 -8 4 -5 8 3 5 -2 21 -10 37 -11 22 -12 31 -2 43 13 16 19 170 7 178 -4 2 -5
18 -4 35 2 19 -3 33 -11 36 -8 3 -14 9 -14 15 0 5 6 6 13 2 6 -4 3 4 -9 17
-21 25 -25 63 -9 89 7 12 6 13 -6 3 -8 -6 -19 -9 -24 -5 -15 11 -17 32 -2 32
8 0 8 3 -2 9 -12 8 -12 13 -3 24 10 11 9 17 -2 26 -15 13 -16 28 -2 49 6 11
14 8 33 -10 14 -13 24 -18 23 -13 -1 6 -1 12 0 15 2 4 7 100 6 100 -1 0 -8 -4
-16 -9z m1 -18 c-11 -5 -11 -7 0 -14 10 -6 11 -9 2 -9 -7 0 -13 -5 -13 -11 0
-5 4 -8 9 -5 8 5 8 -2 2 -33 -1 -2 -8 2 -16 9 -10 8 -12 17 -5 30 6 10 5 21 0
26 -6 6 -1 10 13 11 12 0 16 -1 8 -4z m-56 -183 c-2 -12 4 -24 16 -30 13 -8
18 -18 15 -35 -3 -13 1 -29 8 -34 7 -6 12 -23 10 -37 -1 -17 2 -24 10 -21 9 4
12 -4 11 -21 -1 -15 1 -31 4 -37 3 -5 6 -45 6 -89 1 -64 -2 -80 -17 -89 -16
-10 -16 -13 -1 -29 9 -10 13 -18 8 -18 -4 0 -2 -7 5 -15 7 -8 9 -15 6 -15 -4
0 -2 -9 3 -19 8 -14 7 -22 -4 -31 -12 -10 -13 -16 -4 -26 6 -8 8 -14 5 -14 -4
0 -4 -6 1 -12 12 -20 10 -91 -4 -112 -10 -16 -10 -23 1 -35 12 -14 12 -19 -5
-40 -10 -13 -19 -20 -19 -16 0 4 -7 1 -16 -6 -19 -16 -90 -21 -74 -5 6 6 6 14
-2 23 -9 11 -15 10 -33 -7 -21 -20 -24 -20 -39 -5 -15 15 -21 12 -17 -8 1 -5
-3 -6 -8 -3 -5 4 -12 3 -15 -2 -2 -4 -31 -7 -63 -7 -32 1 -65 -3 -73 -9 -12
-8 -13 -7 -3 3 6 7 10 19 9 25 -2 6 -1 7 2 3 2 -4 10 0 17 10 13 17 14 17 21
0 6 -17 8 -17 30 4 13 12 20 27 17 33 -4 6 0 5 9 -2 10 -8 19 -9 22 -3 3 5 14
8 24 6 9 -1 25 2 35 7 12 6 19 5 23 -5 4 -11 51 -16 62 -7 2 3 17 7 30 9 5 0
9 7 10 14 0 6 3 23 6 36 3 14 0 32 -8 40 -14 17 -16 77 -3 99 5 7 3 12 -4 12
-6 0 0 9 14 20 31 25 41 25 32 3 -5 -15 -4 -16 6 -5 10 9 10 15 1 24 -9 9 -16
8 -30 -5 -10 -9 -21 -17 -23 -17 -8 0 -4 144 4 157 4 6 3 14 -2 17 -5 4 -12 0
-14 -6 -4 -9 -6 -10 -6 -1 -1 6 4 15 9 18 6 4 7 13 2 23 -5 9 -8 43 -7 75 0
32 -3 61 -7 63 -5 3 -6 10 -2 15 3 5 9 7 14 4 4 -3 11 2 14 10 4 11 0 15 -12
13 -11 -2 -16 2 -13 12 7 29 8 65 1 75 -5 9 -6 22 -1 40 4 15 9 2 6 -15z"/>
<path d="M6755 3313 c1 -10 -2 -26 -7 -37 -7 -13 -7 -16 1 -12 19 12 32 -3 21
-25 -7 -11 -16 -17 -23 -12 -9 5 -9 3 -1 -8 5 -8 10 -34 9 -59 0 -29 5 -49 15
-58 13 -10 12 -11 -5 -6 -12 3 -15 2 -9 -3 6 -4 10 -16 8 -25 -1 -10 2 -20 7
-24 5 -3 6 -11 2 -17 -4 -7 -8 -42 -8 -79 -1 -63 0 -66 17 -52 10 10 22 13 30
8 10 -6 10 -4 -1 9 -7 9 -10 17 -6 17 5 0 2 8 -6 18 -19 22 -18 64 1 69 12 4
13 3 1 -5 -7 -5 -10 -15 -7 -21 15 -24 22 1 21 79 0 60 -4 83 -15 90 -13 9
-13 10 0 10 13 0 13 1 0 10 -13 9 -13 10 0 10 12 1 12 2 -2 10 -10 6 -15 20
-14 35 2 14 -3 30 -10 36 -7 5 -10 21 -8 35 2 13 0 24 -5 24 -5 0 -8 -8 -6
-17z m20 -92 c-3 -5 -1 -12 4 -16 5 -3 8 -15 6 -26 -2 -12 2 -22 11 -26 13 -5
13 -7 2 -14 -10 -7 -10 -9 2 -9 13 0 13 -1 0 -10 -8 -5 -10 -10 -5 -10 6 0 11
-9 12 -21 1 -15 -2 -19 -15 -15 -13 5 -13 3 2 -9 14 -11 16 -15 5 -15 -10 0
-11 -2 -2 -8 9 -5 6 -12 -10 -21 -20 -13 -21 -13 -9 2 8 9 9 18 3 21 -10 7 -9
25 3 44 5 8 2 20 -6 30 -8 10 -13 35 -12 60 2 50 2 52 10 52 3 0 3 -4 -1 -9z
m14 -302 c-13 -25 -14 -24 -14 10 -1 23 2 28 12 19 9 -7 10 -15 2 -29z"/>
<path d="M6774 3146 c1 -8 5 -18 8 -22 4 -3 5 1 4 10 -1 8 -5 18 -8 22 -4 3
-5 -1 -4 -10z"/>
<path d="M6783 2868 c-4 -7 -8 -16 -9 -20 -1 -5 -3 -9 -4 -10 -9 -11 -5 -86 6
-99 12 -14 12 -26 -1 -79 -2 -8 -4 -18 -4 -22 -1 -4 -10 -5 -21 -3 -11 2 -22
-1 -25 -6 -4 -5 -12 -6 -18 -2 -7 3 -4 -3 6 -14 9 -11 15 -22 12 -25 -16 -16
46 1 73 21 30 21 32 25 18 40 -13 14 -13 20 -3 37 11 16 16 92 7 109 -1 3 -3
9 -4 14 0 5 -4 13 -9 17 -4 4 1 17 10 28 17 20 17 20 1 7 -16 -12 -22 -9 -19
12 2 11 -7 8 -16 -5z m13 -29 c1 -5 3 -11 4 -14 1 -3 4 -9 5 -15 1 -5 4 -12 5
-15 9 -17 4 -93 -7 -109 -10 -17 -10 -23 3 -37 13 -15 12 -18 -13 -35 -33 -22
-43 -24 -60 -11 -18 13 -7 27 17 22 25 -5 30 2 44 72 1 7 5 16 9 19 4 4 -2 13
-12 20 -14 10 -18 24 -16 56 2 24 4 45 5 48 1 3 1 10 0 15 -1 6 2 6 7 2 4 -5
9 -13 9 -18z"/>
<path d="M6785 2788 c0 -28 5 -43 15 -45 13 -4 13 -3 0 6 -9 6 -10 11 -3 11 9
0 11 27 3 38 -2 1 -3 6 -4 11 -4 29 -12 14 -11 -21z"/>
<path d="M6782 2630 c-7 -12 -20 -17 -32 -15 -11 2 -18 0 -15 -5 3 -4 11 -7
18 -6 20 3 59 33 50 39 -5 3 -14 -3 -21 -13z"/>
<path d="M6650 2644 c0 -7 -13 -10 -30 -9 -17 1 -33 -1 -36 -6 -3 -5 -9 -7
-13 -4 -5 2 -18 -6 -30 -18 l-21 -23 34 1 c19 0 43 8 53 18 17 15 21 15 34 1
14 -13 17 -12 35 7 10 13 14 19 7 16 -6 -4 -16 0 -22 10 -6 10 -11 13 -11 7z
m-44 -33 c-21 -20 -71 -24 -55 -5 6 8 15 12 19 9 5 -3 11 -2 14 3 3 5 12 9 21
9 14 0 14 -2 1 -16z m59 7 c4 -3 2 -9 -3 -12 -5 -3 -15 1 -21 8 -10 11 -9 14
3 12 9 -1 18 -5 21 -8z"/>
<path d="M6487 2597 c-3 -8 1 -14 8 -14 7 0 11 6 8 14 -3 7 -6 13 -8 13 -2 0
-5 -6 -8 -13z"/>
<path d="M6345 2630 c-3 -5 -5 -10 -3 -11 33 -8 38 -7 27 7 -14 17 -16 17 -24
4z"/>
<path d="M6720 5690 c-12 -7 -11 -12 5 -32 20 -22 20 -22 1 -8 -16 12 -18 12
-11 1 5 -10 4 -12 -3 -7 -18 11 -14 0 5 -15 14 -12 15 -12 9 -1 -7 12 -4 12
14 2 l22 -12 -21 -15 c-21 -14 -20 -33 0 -33 6 0 7 5 4 10 -3 6 0 13 8 16 10
3 14 19 13 49 0 24 -3 42 -5 39 -2 -2 -9 0 -15 6 -7 5 -18 5 -26 0z m37 -41
c3 -21 3 -21 -16 2 -11 13 -17 28 -14 32 8 12 26 -9 30 -34z"/>
<path d="M6648 5683 c-4 -8 -2 -66 2 -70 7 -8 5 -30 -3 -40 -6 -8 -5 -18 2
-27 9 -10 9 -16 1 -21 -7 -4 -7 -11 -2 -18 5 -7 8 -44 7 -84 -1 -56 1 -68 10
-57 10 14 12 14 24 1 8 -11 9 -17 1 -22 -6 -3 -8 -11 -4 -16 3 -6 -1 -18 -8
-27 -16 -18 -18 -107 -4 -130 4 -7 3 -18 -2 -25 -13 -15 -13 -29 -1 -44 7 -7
6 -14 -1 -18 -8 -5 -8 -10 0 -20 6 -7 7 -16 2 -19 -9 -6 -9 -56 0 -71 4 -6 5
-27 3 -48 -2 -20 0 -37 6 -37 5 0 9 -5 9 -11 0 -5 -4 -8 -9 -5 -10 7 -9 -13 2
-31 4 -6 2 -13 -5 -15 -7 -3 -5 -7 6 -11 11 -5 15 -3 10 5 -5 7 -2 8 7 3 8 -5
11 -5 7 0 -4 4 -2 15 5 23 6 9 7 13 2 10 -6 -4 -11 2 -12 12 -2 26 14 35 35
18 16 -12 16 -11 2 6 -12 16 -12 18 -1 11 10 -5 12 -4 7 4 -8 12 27 64 37 55
3 -3 8 0 13 7 4 7 3 10 -2 6 -6 -3 -9 18 -9 54 1 32 -2 59 -7 59 -5 0 -6 6 -1
13 12 19 14 47 3 47 -6 0 -10 5 -10 11 0 5 4 8 8 5 4 -2 8 6 8 20 0 13 -3 24
-6 24 -3 0 -6 9 -7 20 -1 11 3 20 9 20 7 0 7 4 0 13 -10 13 -10 62 1 73 3 4 3
14 -2 23 -4 9 -7 46 -6 82 1 57 -1 66 -14 61 -13 -5 -14 -3 -4 9 10 12 10 18
0 29 -10 10 -8 12 8 6 15 -6 17 -4 8 5 -6 6 -9 18 -6 25 3 8 0 14 -6 14 -6 0
-10 -3 -10 -7 5 -30 -2 -35 -21 -18 -19 17 -19 19 -3 38 10 11 13 18 7 14 -15
-8 -49 29 -35 37 12 8 3 36 -11 36 -5 0 -6 -4 -3 -10 3 -5 1 -10 -4 -10 -6 0
-11 5 -11 10 0 12 -17 14 -22 3z m44 -18 c7 4 5 0 -4 -8 -10 -8 -18 -18 -18
-22 0 -5 3 -5 7 -2 12 12 44 -25 33 -38 -7 -8 -1 -20 20 -40 23 -22 27 -32 19
-42 -8 -9 -7 -14 4 -19 16 -6 18 -48 4 -72 -5 -6 -4 -12 2 -12 5 0 8 -8 6 -17
-1 -10 2 -26 6 -35 5 -10 5 -19 0 -23 -6 -3 -8 -14 -6 -25 2 -11 -1 -22 -7
-26 -6 -4 -5 -10 3 -15 11 -7 11 -9 1 -9 -10 0 -10 -5 -1 -21 8 -15 8 -19 0
-15 -6 4 -11 4 -12 -1 0 -4 -2 -16 -4 -26 -2 -9 1 -15 6 -11 5 3 7 10 4 15 -4
5 -2 9 3 9 15 0 22 -26 10 -38 -6 -6 -7 -16 -2 -24 12 -19 13 -37 3 -44 -5 -3
-6 -10 -2 -16 19 -32 7 -136 -14 -114 -4 5 -2 11 5 13 6 3 12 10 12 16 0 6 -7
4 -17 -5 -12 -13 -14 -20 -5 -31 9 -11 5 -20 -19 -45 -17 -18 -35 -30 -39 -27
-9 5 -7 46 3 62 4 7 0 16 -10 22 -11 6 -13 11 -5 11 8 0 10 5 5 13 -11 18 -12
36 -2 43 6 4 6 11 -1 19 -8 10 -8 15 0 20 7 4 8 11 1 18 -12 15 -12 29 1 45 7
8 7 17 -2 27 -12 14 -7 19 13 16 5 -1 7 4 4 11 -2 7 -9 12 -14 11 -13 -2 -14
35 -1 43 7 4 6 9 -3 15 -11 6 -10 12 5 28 10 11 15 24 12 30 -4 5 -1 13 4 16
8 5 6 13 -6 26 -9 10 -20 17 -23 14 -4 -2 -6 22 -6 53 1 31 -2 62 -7 69 -5 7
-5 14 2 18 8 5 8 11 -1 21 -7 9 -8 19 -2 27 8 10 10 32 3 40 -1 1 -3 17 -4 34
-2 25 0 30 10 22 7 -6 19 -8 26 -4z m5 -810 c0 -8 -4 -12 -9 -9 -5 3 -6 10 -3
15 9 13 12 11 12 -6z"/>
<path d="M6668 5617 c10 -14 10 -27 -2 -45 -4 -7 -3 -19 4 -27 8 -9 8 -15 0
-20 -7 -4 -7 -11 -2 -18 5 -7 8 -24 7 -39 -1 -15 2 -25 7 -22 4 3 8 0 8 -5 0
-6 -5 -11 -12 -11 -6 0 -3 -6 8 -14 10 -8 16 -18 11 -22 -4 -4 -7 -2 -7 4 0 7
-5 12 -12 12 -6 0 -1 -11 12 -25 12 -13 27 -22 31 -19 5 3 9 1 9 -4 0 -6 -7
-13 -16 -16 -8 -3 -12 -11 -9 -17 4 -5 -1 -19 -10 -29 -11 -12 -13 -20 -5 -25
8 -5 8 -11 -1 -21 -9 -11 -8 -18 6 -34 18 -20 12 -45 -8 -33 -7 4 -6 0 2 -10
9 -12 10 -21 3 -29 -17 -21 -17 -24 -4 -41 9 -11 10 -17 2 -22 -8 -5 -8 -10 0
-20 7 -8 7 -15 1 -19 -8 -5 -8 -34 -1 -43 2 -2 3 -6 4 -10 1 -5 4 -13 8 -19 4
-6 4 -14 1 -18 -4 -4 -8 -18 -9 -32 l-1 -25 28 27 c22 21 26 30 17 41 -8 10
-7 18 6 32 10 11 13 22 8 25 -11 7 -10 31 1 42 3 4 5 -3 2 -15 -2 -11 0 -21 6
-21 9 0 6 41 -5 59 -4 5 -2 12 3 15 10 7 9 25 -3 44 -4 7 -2 20 6 30 12 15 11
16 -4 3 -10 -7 -18 -12 -19 -10 -7 34 -6 45 1 54 5 6 7 20 6 30 -2 11 -1 25 3
30 3 6 6 17 6 25 0 8 4 21 8 28 5 6 4 12 -2 12 -5 0 -8 8 -6 18 1 9 -1 24 -6
33 -5 9 -5 19 -2 23 13 13 10 56 -4 67 -9 8 -10 15 -3 24 7 8 1 20 -20 40 -22
21 -27 32 -19 41 7 9 6 15 -3 20 -21 14 -40 14 -30 1z m27 -6 c3 -5 2 -12 -3
-15 -5 -3 -9 1 -9 9 0 17 3 19 12 6z m30 -97 c-11 -8 -10 -12 4 -21 15 -10 21
-49 11 -73 -1 -3 -1 -9 0 -15 9 -41 8 -45 -3 -38 -7 4 -16 8 -22 8 -5 1 -9 7
-7 14 1 7 -2 19 -8 26 -8 10 -8 15 0 20 8 5 5 11 -7 21 -11 8 -13 13 -5 14 6
0 12 5 12 11 0 5 -6 7 -12 3 -7 -4 -10 -4 -6 1 4 4 3 14 -3 21 -7 8 -7 14 1
19 8 5 8 11 0 20 -24 29 2 35 30 8 23 -23 26 -30 15 -39z m21 -194 c-1 -16 -5
-32 -8 -36 -4 -3 -4 -16 -2 -29 5 -30 -19 -51 -36 -30 -10 11 -10 18 -1 29 9
10 9 16 1 21 -8 5 -4 15 11 31 16 17 18 24 8 24 -12 0 -11 2 1 10 24 15 29 12
26 -20z m-18 -127 c-1 -5 4 -19 12 -33 18 -31 21 -48 10 -55 -5 -3 -7 -12 -4
-19 3 -7 -2 -16 -12 -20 -15 -6 -15 -8 0 -31 15 -23 15 -25 -3 -37 -18 -11
-19 -14 -6 -29 13 -14 13 -18 -4 -33 -17 -15 -19 -15 -17 -2 1 8 5 18 9 22 3
4 3 12 -1 18 -4 6 -7 14 -8 19 -1 4 -3 9 -4 12 -6 13 -5 31 2 42 5 6 4 14 -2
18 -8 5 -8 10 0 20 7 8 7 15 1 19 -10 7 -9 25 3 44 4 7 5 16 2 19 -3 3 -1 12
5 20 13 14 20 17 17 6z"/>
<path d="M6680 5560 c0 -5 5 -12 10 -15 8 -5 8 -11 0 -20 -7 -9 -6 -16 5 -25
9 -7 14 -19 11 -26 -3 -7 -1 -16 5 -20 7 -4 6 -10 -1 -19 -8 -10 -8 -15 0 -20
6 -4 9 -13 7 -19 -3 -7 1 -13 8 -13 10 0 11 5 5 17 -5 10 -6 20 -3 24 16 16 9
57 -10 68 -17 9 -18 12 -6 22 12 9 11 14 -8 33 -13 12 -23 18 -23 13z m47 -95
c0 -8 -4 -12 -9 -9 -5 3 -6 10 -3 15 9 13 12 11 12 -6z"/>
<path d="M6716 5301 c-12 -13 -14 -21 -6 -26 8 -5 8 -10 0 -20 -7 -8 -9 -19
-5 -25 11 -17 25 0 21 25 -2 13 -2 26 2 29 6 7 12 36 8 36 -2 0 -11 -9 -20
-19z"/>
<path d="M6715 5173 c3 -7 3 -19 -2 -25 -11 -19 -12 -37 -2 -44 6 -4 6 -11 -1
-19 -7 -8 -7 -16 -2 -19 10 -6 29 12 31 27 1 4 1 8 2 10 7 22 3 38 -13 58 -11
13 -17 18 -13 12z m21 -48 c-1 -9 -6 -15 -12 -15 -9 0 -13 19 -6 33 6 12 20
-2 18 -18z"/>
<path d="M6709 5048 c-11 -36 3 -60 24 -39 7 7 6 12 -6 17 -9 3 -14 10 -11 15
3 5 3 9 0 9 -3 0 -6 -1 -7 -2z"/>
<path d="M6762 4937 c-6 -7 -9 -22 -8 -32 5 -28 -3 -38 -20 -24 -18 15 -31 4
-16 -14 9 -10 8 -17 0 -25 -7 -7 -8 -12 -4 -12 5 0 3 -7 -4 -15 -6 -8 -9 -19
-5 -25 11 -18 25 0 21 26 -3 14 -1 22 5 19 5 -4 6 -11 3 -17 -5 -7 -2 -8 6 -3
9 5 11 4 6 -4 -4 -6 -2 -19 6 -28 11 -14 11 -16 -2 -8 -8 4 -3 -5 11 -21 24
-26 37 -70 17 -58 -4 3 -5 -3 -2 -13 4 -14 3 -15 -4 -4 -6 8 -12 9 -16 3 -3
-6 0 -13 6 -15 9 -4 10 -6 1 -6 -6 -1 -14 3 -18 9 -3 5 -13 7 -23 4 -14 -5
-15 -4 -2 5 13 9 13 11 1 11 -11 0 -10 4 4 14 17 12 18 16 5 32 -13 16 -13 17
0 9 13 -8 13 -6 2 7 -7 9 -22 15 -34 13 -17 -4 -18 -2 -6 12 9 12 9 15 1 9 -9
-5 -11 -2 -7 8 3 9 2 16 -3 16 -15 0 -12 -58 4 -65 12 -4 13 -8 4 -19 -9 -10
-9 -16 -1 -21 8 -5 8 -10 0 -20 -8 -9 -8 -15 0 -20 6 -3 8 -10 5 -15 -3 -5 -1
-11 5 -15 6 -4 8 -11 4 -16 -3 -5 -9 -7 -13 -5 -9 6 -7 -146 3 -162 4 -7 2
-20 -6 -29 -13 -16 -13 -19 1 -38 4 -5 7 -46 6 -90 -1 -56 3 -85 12 -97 10
-11 11 -18 3 -23 -8 -5 -8 -10 0 -20 6 -8 7 -16 2 -19 -14 -8 -8 -96 7 -105
10 -6 9 -10 -2 -14 -13 -5 -15 -24 -7 -47 1 -3 2 -8 1 -12 -2 -14 11 -9 25 10
13 16 14 16 8 -3 -5 -16 -4 -17 5 -5 6 8 18 15 28 16 28 1 50 14 50 29 0 12
-3 12 -20 0 -14 -10 -24 -11 -37 -3 -15 10 -15 13 7 36 13 14 26 22 30 19 3
-4 1 -7 -5 -7 -6 0 -10 -9 -9 -20 1 -11 5 -20 10 -20 5 0 6 7 3 16 -3 8 -2 12
3 9 5 -3 12 -1 15 4 4 5 2 12 -4 16 -7 4 -7 12 0 24 5 10 6 21 2 25 -3 4 -7
44 -8 89 -2 99 -1 97 -14 97 -12 0 -9 -22 5 -32 6 -5 4 -8 -5 -8 -11 0 -12 -2
-3 -8 9 -6 6 -11 -8 -21 -16 -9 -19 -9 -14 0 5 8 4 10 -3 5 -20 -12 -53 -16
-47 -5 4 5 1 8 -7 7 -8 -2 -13 6 -12 22 0 14 5 24 12 22 7 -1 12 3 12 9 0 6
-7 8 -17 4 -15 -5 -16 -4 -5 7 11 11 17 9 33 -12 11 -15 17 -18 13 -7 -6 18 5
23 22 10 5 -5 3 -1 -6 7 -18 19 -24 40 -10 40 6 0 10 -6 10 -14 0 -8 4 -17 9
-21 6 -3 8 3 6 14 -3 14 1 18 12 14 12 -5 12 -7 1 -15 -11 -8 -10 -9 1 -6 8 2
15 11 17 20 1 11 -3 15 -14 11 -14 -4 -13 -2 2 11 18 15 18 16 1 42 -16 24
-16 26 -1 21 13 -5 15 -3 8 11 -4 9 -8 43 -7 75 2 59 -4 68 -25 42 -10 -12
-10 -18 1 -31 17 -20 20 -42 8 -50 -6 -3 -5 -12 3 -22 9 -11 9 -13 1 -9 -8 5
-11 1 -8 -13 3 -14 0 -18 -8 -13 -7 4 -5 -2 3 -13 14 -18 14 -18 -2 -5 -10 7
-15 17 -12 22 3 5 0 9 -5 9 -16 0 -14 -11 6 -32 12 -13 14 -21 5 -30 -8 -8
-18 -5 -38 11 -15 11 -23 21 -19 21 5 0 17 -7 27 -17 31 -28 32 -7 2 33 -16
21 -23 34 -16 30 12 -7 12 -4 1 15 -7 13 -12 28 -11 32 1 5 -3 5 -9 1 -8 -4
-9 -3 -5 4 4 7 1 12 -6 12 -10 0 -10 2 1 9 11 7 11 9 0 13 -10 3 -10 6 -1 12
7 4 12 2 12 -3 0 -6 5 -11 11 -11 8 0 7 6 -2 18 -13 16 -13 16 5 2 18 -13 19
-13 12 0 -4 8 0 6 10 -5 14 -16 16 -17 11 -3 -4 10 -3 17 1 15 4 -1 18 6 32
16 13 9 18 17 11 17 -10 0 -11 3 -3 13 12 14 11 35 -1 55 -5 7 -3 12 4 12 8 0
8 4 2 13 -13 15 -13 47 0 47 6 0 6 5 0 13 -5 6 -9 53 -9 104 1 50 -2 89 -6 86
-5 -2 -8 1 -8 6 0 6 5 11 11 11 5 0 7 5 4 10 -8 14 -20 13 -33 -3z m15 -24 c2
-16 4 -60 6 -100 2 -58 1 -70 -10 -61 -7 5 -11 14 -8 18 3 5 1 11 -5 15 -15 9
-12 28 3 22 10 -4 13 3 12 21 0 14 -7 27 -15 30 -9 2 -11 0 -5 -5 14 -11 17
-33 5 -33 -5 0 -10 7 -10 16 0 9 -5 12 -12 8 -7 -4 -10 -4 -6 1 4 4 2 15 -5
24 -10 14 -10 14 3 4 21 -16 41 -2 35 26 -4 20 0 41 8 41 1 0 3 -12 4 -27z
m-62 -161 c-3 -3 0 -12 7 -19 9 -11 9 -16 -2 -23 -19 -12 -34 -1 -21 14 7 8 7
16 0 23 -6 6 -5 10 6 10 8 0 13 -3 10 -5z m-7 -74 c-2 -7 4 -13 12 -13 8 0 21
-4 28 -9 7 -4 19 -2 27 4 11 9 15 9 15 1 0 -6 -4 -11 -10 -11 -5 0 -10 -4 -10
-10 0 -5 5 -9 11 -7 15 3 21 -34 7 -50 -6 -7 -7 -13 -3 -13 4 0 2 -6 -4 -13
-6 -8 -23 -13 -38 -12 -16 1 -33 -2 -39 -6 -7 -6 -10 3 -9 27 0 22 8 41 18 49
16 11 16 13 2 19 -9 3 -14 10 -10 15 3 5 1 12 -5 16 -6 4 -8 11 -5 16 9 13 15
11 13 -3z m88 -158 c0 -12 -4 -16 -9 -11 -5 5 -6 14 -3 20 10 15 12 14 12 -9z
m-79 -84 c-3 -6 7 -27 21 -46 20 -27 21 -31 5 -17 -11 10 -26 17 -34 15 -15
-4 -19 22 -6 40 6 8 5 18 -4 30 -13 15 -12 16 4 3 10 -8 16 -19 14 -25z m28
-119 c2 -21 -1 -25 -11 -16 -7 6 -17 8 -21 6 -5 -3 -9 10 -9 29 0 31 2 33 20
20 11 -7 21 -25 21 -39z m65 50 c0 -2 -10 -12 -21 -23 -22 -19 -22 -19 -8 4
12 19 29 30 29 19z m-62 -161 c22 4 28 -4 15 -22 -5 -5 2 1 13 14 16 18 23 21
29 12 5 -9 4 -11 -3 -6 -7 4 -12 2 -12 -3 0 -6 5 -11 12 -11 6 0 3 -7 -8 -15
-16 -13 -16 -14 -1 -9 20 7 23 -6 5 -24 -9 -9 -9 -12 2 -12 7 0 10 -3 7 -7 -4
-3 -2 -12 3 -18 8 -9 0 -23 -28 -51 -22 -22 -37 -45 -35 -52 3 -6 9 -10 13 -7
5 3 11 2 13 -2 3 -5 -10 -8 -29 -9 -22 0 -30 2 -22 7 10 7 10 9 -2 9 -11 0
-10 4 4 12 19 11 19 11 1 24 -11 8 -13 14 -6 14 7 0 9 5 4 12 -11 19 -13 67
-2 74 6 4 6 11 -1 19 -8 10 -8 15 0 20 8 5 6 14 -7 28 -10 13 -12 17 -3 11 8
-7 25 -10 38 -8z"/>
<path d="M6722 4651 c-11 -6 -10 -10 5 -15 17 -7 17 -8 -2 -22 -10 -8 -20 -25
-20 -37 -2 -20 3 -23 34 -22 20 0 37 6 37 13 1 7 3 13 4 15 1 1 4 12 5 25 1
12 0 20 -3 17 -3 -3 -15 4 -26 14 -13 13 -26 17 -34 12z m50 -64 c-7 -8 -10
-16 -7 -19 3 -3 -7 -4 -21 -3 -18 0 -28 7 -30 19 -1 10 0 15 3 12 3 -3 12 2
19 12 9 12 9 21 1 32 -6 8 2 3 18 -12 22 -21 26 -30 17 -41z"/>
<path d="M6737 4596 c-14 -20 -14 -24 -2 -22 25 4 41 24 28 37 -7 7 -15 3 -26
-15z m14 -9 c-10 -9 -11 -8 -5 6 3 10 9 15 12 12 3 -3 0 -11 -7 -18z"/>
<path d="M6703 4405 c0 -8 4 -12 9 -9 5 3 6 10 3 15 -9 13 -12 11 -12 -6z"/>
<path d="M6719 4342 c11 -8 11 -10 0 -14 -10 -3 -9 -6 3 -10 11 -5 15 -2 14
10 -2 9 -9 18 -17 20 -12 3 -12 2 0 -6z"/>
<path d="M6736 4189 c2 -4 0 -11 -6 -14 -8 -5 -8 -11 0 -20 6 -7 7 -16 3 -18
-8 -5 -10 -67 -3 -74 2 -3 6 -16 9 -30 0 -4 17 8 36 27 31 30 33 35 20 53 -11
16 -12 24 -3 34 6 8 7 13 2 12 -21 -4 -26 2 -13 19 13 16 13 16 -7 -1 -22 -18
-41 -12 -24 8 7 8 5 12 -5 12 -8 0 -12 -4 -9 -8z m27 -34 c4 0 6 -2 5 -5 -2
-3 5 -17 14 -32 16 -25 16 -26 -13 -54 -17 -16 -30 -24 -29 -19 1 6 1 12 0 15
-7 19 -7 41 1 46 5 3 9 10 9 15 0 6 -6 7 -12 3 -10 -6 -10 -5 -1 7 10 12 10
18 0 29 -10 10 -9 11 3 4 8 -5 18 -9 23 -9z"/>
<path d="M6759 4143 c-1 -5 -1 -12 0 -17 1 -4 -2 -13 -7 -20 -7 -10 -8 -18 -3
-43 0 -3 10 2 21 12 17 15 18 19 4 39 -8 13 -11 26 -7 29 3 4 3 7 0 7 -4 0 -8
-3 -8 -7z m15 -42 c3 -5 -1 -14 -8 -20 -12 -10 -14 -9 -11 6 2 10 4 19 4 21 2
5 10 2 15 -7z"/>
<path d="M6727 4783 c-4 -3 -1 -13 5 -21 16 -19 19 -44 7 -58 -18 -21 7 -25
26 -4 18 20 18 21 -8 48 -15 16 -24 31 -20 35 3 4 4 7 1 7 -2 0 -8 -3 -11 -7z"/>
<path d="M6720 4500 c-12 -8 -12 -10 -1 -10 7 0 11 -6 8 -13 -3 -7 1 -21 9
-31 7 -11 12 -22 9 -25 -2 -4 5 -7 15 -7 10 0 17 7 15 16 -1 8 0 20 4 25 10
18 9 35 -2 42 -19 12 -41 13 -57 3z m55 -21 c2 -8 -3 -22 -9 -31 -11 -15 -13
-15 -24 2 -7 12 -8 21 -2 25 6 4 8 10 5 15 -3 4 2 7 12 6 9 -2 17 -9 18 -17z"/>
<path d="M6751 4476 c-8 -10 -9 -16 -1 -21 5 -3 10 -5 11 -3 4 18 7 38 4 38
-1 0 -8 -6 -14 -14z"/>
<path d="M6762 4275 c3 -8 -6 -17 -14 -14 -24 7 -34 4 -35 -12 -1 -11 2 -17 7
-14 5 3 11 1 15 -5 4 -7 12 -7 24 0 10 5 21 7 24 4 3 -3 4 1 3 10 -1 9 -8 22
-15 29 -7 6 -11 8 -9 2z m-14 -40 c-3 -3 -9 2 -12 12 -6 14 -5 15 5 6 7 -7 10
-15 7 -18z"/>
<path d="M6775 4021 c-3 -5 -2 -12 3 -15 5 -3 9 1 9 9 0 17 -3 19 -12 6z"/>
<path d="M6707 3904 c-7 -8 3 -34 13 -34 9 0 8 26 -1 35 -3 3 -8 2 -12 -1z"/>
<path d="M6779 3857 c-1 -3 -7 -30 -13 -54 -3 -16 0 -20 12 -18 9 2 20 4 24 4
4 1 6 10 5 21 -1 14 -6 19 -17 15 -11 -4 -10 -1 3 9 15 12 16 14 2 20 -8 3
-15 4 -16 3z m21 -53 c0 -8 -19 -13 -24 -6 -3 5 1 9 9 9 8 0 15 -2 15 -3z"/>
<path d="M6713 3805 c0 -8 4 -12 9 -9 5 3 6 10 3 15 -9 13 -12 11 -12 -6z"/>
<path d="M6718 3729 c-7 -5 -9 -11 -5 -16 5 -4 12 -1 17 7 7 11 9 10 8 -7 -1
-11 -7 -20 -13 -19 -5 2 -7 1 -2 -1 4 -3 4 -10 0 -16 -12 -20 -11 -57 3 -68 8
-6 11 -16 7 -22 -4 -6 -1 -7 8 -1 8 4 24 9 37 10 12 0 26 5 30 9 4 5 -1 5 -10
2 -20 -7 -45 18 -28 28 8 5 8 11 1 19 -6 7 -8 16 -4 20 4 4 1 11 -7 16 -12 7
-12 12 3 27 16 18 15 19 -8 19 -14 0 -31 -3 -37 -7z m30 -52 c-1 -2 3 -11 10
-20 9 -11 10 -17 2 -22 -8 -5 -8 -10 0 -20 8 -10 8 -13 -2 -11 -24 3 -35 15
-34 38 2 25 15 52 23 44 2 -2 3 -6 1 -9z"/>
<path d="M6739 3678 c-6 -17 -4 -60 4 -65 6 -3 7 -1 3 5 -3 6 -2 14 4 17 8 5
8 11 1 19 -6 7 -8 16 -4 19 3 4 3 7 0 7 -4 0 -7 -1 -8 -2z"/>
<path d="M6800 3420 c-9 -6 -10 -10 -3 -10 6 0 15 5 18 10 8 12 4 12 -15 0z"/>
<path d="M6819 3347 c0 -1 -2 -16 -3 -33 -2 -29 0 -31 16 -21 22 14 24 43 3
51 -8 3 -15 4 -16 3z m15 -37 c-6 -6 -10 -3 -10 10 0 13 4 16 10 10 7 -7 7
-13 0 -20z"/>
<path d="M6295 2650 c-2 -3 5 -6 15 -7 11 -1 22 2 24 5 3 4 -4 8 -15 8 -11 0
-22 -3 -24 -6z"/>
<path d="M6416 2648 c3 -5 10 -6 15 -3 13 9 11 12 -6 12 -8 0 -12 -4 -9 -9z"/>
<path d="M6279 2613 c-9 -11 -10 -14 -1 -9 6 4 12 2 12 -3 0 -6 -6 -11 -12
-11 -9 0 -8 -4 2 -10 12 -8 12 -10 1 -10 -20 0 -8 -10 17 -15 11 -2 26 2 32 9
6 8 24 12 40 11 16 -1 27 1 25 5 -3 5 -13 7 -23 6 -9 -2 -31 8 -48 21 -29 22
-32 22 -45 6z m41 -19 c0 4 5 4 11 0 8 -4 8 -9 0 -17 -21 -21 -37 -15 -36 14
0 26 1 27 12 12 7 -9 13 -13 13 -9z"/>
<path d="M6306 2578 c3 -5 10 -6 15 -3 13 9 11 12 -6 12 -8 0 -12 -4 -9 -9z"/>
</g>
</svg>
